STARTFONT 2.1
COMMENT
COMMENT Converted from OpenType font "uvnbaisau_regular.ttf" by "otf2bdf 3.0".
COMMENT
FONT -FreeType-UVN Bai Sau-Bold-R-Normal--28-200-100-100-P-139-ISO10646-1
SIZE 20 100 100
FONTBOUNDINGBOX 38 38 -4 -7
STARTPROPERTIES 19
FOUNDRY "FreeType"
FAMILY_NAME "UVN Bai Sau"
WEIGHT_NAME "Bold"
SLANT "R"
SETWIDTH_NAME "Normal"
ADD_STYLE_NAME ""
PIXEL_SIZE 28
POINT_SIZE 200
RESOLUTION_X 100
RESOLUTION_Y 100
SPACING "P"
AVERAGE_WIDTH 139
CHARSET_REGISTRY "ISO10646"
CHARSET_ENCODING "1"
FONT_ASCENT 31
FONT_DESCENT 7
COPYRIGHT "(c) Copyright 2001 by Tom Truong. All Rights Reserved"
_OTF_FONTFILE "uvnbaisau_regular.ttf"
_OTF_PSNAME "UVNBaiSauBold"
ENDPROPERTIES
CHARS 383
STARTCHAR 0020
ENCODING 32
SWIDTH 252 0
DWIDTH 7 0
BBX 0 0 0 0
BITMAP
ENDCHAR
STARTCHAR 0021
ENCODING 33
SWIDTH 324 0
DWIDTH 9 0
BBX 5 19 2 0
BITMAP
F8
F8
F8
F8
F8
F8
F8
F8
F8
F8
F8
F8
F8
00
70
F8
F8
F8
78
ENDCHAR
STARTCHAR 0022
ENCODING 34
SWIDTH 324 0
DWIDTH 9 0
BBX 8 8 1 12
BITMAP
E7
E7
E7
E7
E7
E7
E7
E7
ENDCHAR
STARTCHAR 0023
ENCODING 35
SWIDTH 756 0
DWIDTH 21 0
BBX 21 20 0 0
BITMAP
0078E0
0071E0
00F1C0
00E1C0
00E3C0
0FFFF8
1FFFF8
1FFFF0
3FFFF0
038700
038F00
078E00
7FFFE0
7FFFC0
FFFFC0
0E3C00
1E3800
1C3800
1C7800
3C7000
ENDCHAR
STARTCHAR 0024
ENCODING 36
SWIDTH 540 0
DWIDTH 15 0
BBX 11 22 3 -1
BITMAP
0C00
0C00
0C00
7FC0
FFC0
FFC0
F000
F800
FC00
7E00
3F80
1FC0
07C0
03E0
03E0
FFE0
FFC0
FF80
FF00
0C00
0C00
0C00
ENDCHAR
STARTCHAR 0025
ENCODING 37
SWIDTH 864 0
DWIDTH 24 0
BBX 22 19 1 0
BITMAP
3F01C0
7F8180
FFC380
E1C700
E1C700
E1CE00
FFDC00
7F9C00
3F3800
0C31E0
0073F8
00E7FC
00E71C
01CE1C
038E1C
03871C
0707FC
0603F8
0E01F0
ENDCHAR
STARTCHAR 0026
ENCODING 38
SWIDTH 756 0
DWIDTH 21 0
BBX 20 19 1 0
BITMAP
1FFC00
3FFC00
3FFC00
3FFC00
1F8000
0F8180
3FC7C0
7FE7C0
7FF3E0
7DFBE0
F8FBE0
F87FE0
F87FC0
7C3FC0
7E1F80
7FFF80
3FFFC0
1FFFE0
07FBF0
ENDCHAR
STARTCHAR 0027
ENCODING 39
SWIDTH 180 0
DWIDTH 5 0
BBX 3 8 1 12
BITMAP
E0
E0
E0
E0
E0
E0
E0
E0
ENDCHAR
STARTCHAR 0028
ENCODING 40
SWIDTH 396 0
DWIDTH 11 0
BBX 8 25 2 -5
BITMAP
06
0F
1E
3C
3C
78
78
70
F0
F0
F0
F0
F0
F0
F0
F0
70
78
78
3C
3C
1E
1F
0F
06
ENDCHAR
STARTCHAR 0029
ENCODING 41
SWIDTH 396 0
DWIDTH 11 0
BBX 8 25 1 -5
BITMAP
60
F0
F8
78
3C
1E
1E
0E
0F
0F
0F
0F
0F
0F
0F
0F
0E
0E
1E
1C
3C
78
F8
F0
60
ENDCHAR
STARTCHAR 002A
ENCODING 42
SWIDTH 468 0
DWIDTH 13 0
BBX 10 10 2 10
BITMAP
1E00
5C00
6D80
EF80
FFC0
1E00
FFC0
EF80
4D80
1C00
ENDCHAR
STARTCHAR 002B
ENCODING 43
SWIDTH 828 0
DWIDTH 23 0
BBX 17 17 3 0
BITMAP
01C000
01C000
01C000
01C000
01C000
01C000
01C000
FFFF80
FFFF80
FFFF80
01C000
01C000
01C000
01C000
01C000
01C000
01C000
ENDCHAR
STARTCHAR 002C
ENCODING 44
SWIDTH 252 0
DWIDTH 7 0
BBX 5 8 1 -4
BITMAP
78
78
F8
F0
F0
F0
E0
E0
ENDCHAR
STARTCHAR 002D
ENCODING 45
SWIDTH 324 0
DWIDTH 9 0
BBX 7 4 1 5
BITMAP
FE
FE
FE
FE
ENDCHAR
STARTCHAR 002E
ENCODING 46
SWIDTH 252 0
DWIDTH 7 0
BBX 6 5 1 0
BITMAP
78
F8
FC
FC
78
ENDCHAR
STARTCHAR 002F
ENCODING 47
SWIDTH 252 0
DWIDTH 7 0
BBX 10 23 -1 -3
BITMAP
01C0
0180
0380
0380
0300
0700
0700
0600
0E00
0E00
0C00
0C00
1C00
1800
1800
3800
3000
3000
7000
6000
6000
E000
E000
ENDCHAR
STARTCHAR 0030
ENCODING 48
SWIDTH 540 0
DWIDTH 15 0
BBX 14 20 1 0
BITMAP
0700
1FE0
7FF0
7FF8
FFF8
F87C
F87C
F87C
F87C
F87C
F87C
F87C
F87C
F87C
F87C
F8FC
FFF8
7FF8
3FF0
1FC0
ENDCHAR
STARTCHAR 0031
ENCODING 49
SWIDTH 540 0
DWIDTH 15 0
BBX 7 19 4 0
BITMAP
FE
FE
FE
FE
1E
1E
1E
1E
1E
1E
1E
1E
1E
1E
1E
1E
1E
1E
1E
ENDCHAR
STARTCHAR 0032
ENCODING 50
SWIDTH 540 0
DWIDTH 15 0
BBX 13 20 1 0
BITMAP
0700
1FE0
3FF0
7FF8
7FF8
F8F8
F8F8
F8F8
7DF8
7BF0
37E0
0FE0
1FC0
3F00
3E00
7FF8
FFF8
FFF8
FFF8
7FF8
ENDCHAR
STARTCHAR 0033
ENCODING 51
SWIDTH 540 0
DWIDTH 15 0
BBX 13 19 1 0
BITMAP
7FF0
7FF0
7FF8
7FF8
01F0
03E0
07C0
0F80
1FE0
1FF8
1FF8
0078
0078
0078
FFF8
FFF8
FFF0
FFF0
FFC0
ENDCHAR
STARTCHAR 0034
ENCODING 52
SWIDTH 540 0
DWIDTH 15 0
BBX 14 19 1 1
BITMAP
07D0
07B0
0FB0
0F70
1F70
1EF0
3EF0
3CF0
78F0
F8F0
F0F0
FFFC
FFFC
FFFC
7FFC
00F0
00F0
00F0
00F0
ENDCHAR
STARTCHAR 0035
ENCODING 53
SWIDTH 540 0
DWIDTH 15 0
BBX 13 19 1 0
BITMAP
7FF0
7FF0
7FF0
7FF0
7C00
7C00
7FC0
7FF0
7FF0
7FF8
00F8
0078
0078
0078
FFF8
FFF8
FFF0
FFE0
FFC0
ENDCHAR
STARTCHAR 0036
ENCODING 54
SWIDTH 540 0
DWIDTH 15 0
BBX 14 19 1 0
BITMAP
07E0
07C0
0FC0
0F80
1F00
1F00
3EE0
7EF0
7DF8
7DFC
F8FC
F87C
F07C
F87C
FCFC
FFF8
7FF8
3FF0
1FC0
ENDCHAR
STARTCHAR 0037
ENCODING 55
SWIDTH 540 0
DWIDTH 15 0
BBX 13 19 1 0
BITMAP
FFF0
FFF8
FFF8
FFF8
00F8
00F8
01F0
01F0
3FF8
3FF8
3FF8
03E0
07C0
07C0
07C0
0F80
0F80
0F80
1F00
ENDCHAR
STARTCHAR 0038
ENCODING 56
SWIDTH 540 0
DWIDTH 15 0
BBX 14 20 1 0
BITMAP
0780
1FE0
3FF0
7FF8
78F8
7878
7878
7CF8
3FF0
1FE0
7FF8
FCF8
F87C
F07C
F07C
F8FC
FFF8
7FF8
3FF0
1FE0
ENDCHAR
STARTCHAR 0039
ENCODING 57
SWIDTH 540 0
DWIDTH 15 0
BBX 14 20 1 0
BITMAP
0700
1FE0
3FF0
7FF8
FFF8
F87C
F87C
F87C
F87C
FCF8
FEF8
7DF0
3DF0
0BE0
03E0
07C0
0FC0
0F80
1F80
1F00
ENDCHAR
STARTCHAR 003A
ENCODING 58
SWIDTH 288 0
DWIDTH 8 0
BBX 5 13 2 0
BITMAP
F0
F8
F8
F8
70
00
00
00
F0
F8
F8
F8
F0
ENDCHAR
STARTCHAR 003B
ENCODING 59
SWIDTH 288 0
DWIDTH 8 0
BBX 6 17 1 -4
BITMAP
7C
7C
7C
7C
38
00
00
00
00
7C
78
78
F8
F0
F0
F0
E0
ENDCHAR
STARTCHAR 003C
ENCODING 60
SWIDTH 828 0
DWIDTH 23 0
BBX 16 16 4 0
BITMAP
0007
001F
00FF
03FC
0FF0
7F80
FE00
F800
FC00
FF00
3FE0
07F8
01FF
003F
000F
0001
ENDCHAR
STARTCHAR 003D
ENCODING 61
SWIDTH 828 0
DWIDTH 23 0
BBX 17 9 3 4
BITMAP
FFFF80
FFFF80
FFFF80
000000
000000
000000
FFFF80
FFFF80
FFFF80
ENDCHAR
STARTCHAR 003E
ENCODING 62
SWIDTH 828 0
DWIDTH 23 0
BBX 16 16 4 0
BITMAP
C000
F000
FE00
7F80
1FF0
03FC
00FF
001F
007F
01FE
0FF8
3FC0
FF00
F800
E000
8000
ENDCHAR
STARTCHAR 003F
ENCODING 63
SWIDTH 504 0
DWIDTH 14 0
BBX 12 20 1 0
BITMAP
0F00
3FC0
7FE0
FFF0
FFF0
F1F0
00F0
01F0
0FF0
0FF0
0FE0
0FC0
0F00
0F00
0000
0F00
1F00
1F80
1F80
0F00
ENDCHAR
STARTCHAR 0040
ENCODING 64
SWIDTH 972 0
DWIDTH 27 0
BBX 26 24 1 -4
BITMAP
007FE000
01FFF800
07F9FC00
0F801E00
1E000700
3C000380
381C0380
707FE180
70FFE1C0
61E1E1C0
E1C1E1C0
E1C1C1C0
E3C1C380
E3C1C380
E3C3C700
E3C78F00
71FFFE00
71FDFC00
7870E000
3C000000
1E001C00
0FC0FC00
03FFF000
00FFC000
ENDCHAR
STARTCHAR 0041
ENCODING 65
SWIDTH 612 0
DWIDTH 17 0
BBX 15 20 1 0
BITMAP
03C0
1FF0
3FF8
3FFC
7FFC
7C7E
F83E
F83E
FBFE
FBFE
FBFE
FBFE
FBFE
F83E
F83E
F83E
F83E
F83E
F83E
F83E
ENDCHAR
STARTCHAR 0042
ENCODING 66
SWIDTH 576 0
DWIDTH 16 0
BBX 15 20 1 0
BITMAP
0780
1FE0
3FF8
7FF8
7FFC
F87C
F87C
F87C
FBF8
FBF0
FBF8
FBFC
F87C
F83E
F83E
F8FE
FBFC
FBFC
FBF8
FBE0
ENDCHAR
STARTCHAR 0043
ENCODING 67
SWIDTH 504 0
DWIDTH 14 0
BBX 12 19 1 0
BITMAP
03F0
0FF0
1FF0
3FF0
7F00
FC00
F800
F800
F800
F800
F800
F800
FC00
7E00
7FF0
3FF0
1FF0
0FF0
01F0
ENDCHAR
STARTCHAR 0044
ENCODING 68
SWIDTH 612 0
DWIDTH 17 0
BBX 16 19 1 0
BITMAP
FFC0
FFF0
FFF8
FFFC
F8FE
F87E
F83F
F81F
F81F
F81F
F81F
F81F
F83F
F87E
FBFE
FBFC
FBF8
FBF0
FB80
ENDCHAR
STARTCHAR 0045
ENCODING 69
SWIDTH 504 0
DWIDTH 14 0
BBX 12 19 1 0
BITMAP
03F0
0FF0
1FF0
3FF0
7F00
FC00
F800
FFF0
FFF0
FFF0
FFF0
F800
FC00
7E00
7FF0
3FF0
1FF0
0FF0
01F0
ENDCHAR
STARTCHAR 0046
ENCODING 70
SWIDTH 432 0
DWIDTH 12 0
BBX 11 19 1 0
BITMAP
1FE0
3FE0
7FE0
7FE0
FC00
F800
F800
FFE0
FFE0
FFE0
FFE0
FFE0
F800
F800
F800
F800
F800
F800
F800
ENDCHAR
STARTCHAR 0047
ENCODING 71
SWIDTH 756 0
DWIDTH 21 0
BBX 20 20 1 0
BITMAP
00F000
07FE00
1FFF80
3FFF80
3FFF00
7F0E00
FC0000
F80000
F87FF0
F87FF0
F87FF0
F87FE0
F803E0
FC03E0
7E07E0
7FFFC0
3FFF80
1FFF80
0FFF00
03FC00
ENDCHAR
STARTCHAR 0048
ENCODING 72
SWIDTH 612 0
DWIDTH 17 0
BBX 15 19 1 0
BITMAP
F83E
F83E
F83E
F83E
F83E
F83E
FFFE
FFFE
FFFE
FFFE
FFFE
F83E
F83E
F83E
F83E
F83E
F83E
F83E
F83E
ENDCHAR
STARTCHAR 0049
ENCODING 73
SWIDTH 252 0
DWIDTH 7 0
BBX 5 19 1 0
BITMAP
F8
F8
F8
F8
F8
F8
F8
F8
F8
F8
F8
F8
F8
F8
F8
F8
F8
F8
F8
ENDCHAR
STARTCHAR 004A
ENCODING 74
SWIDTH 396 0
DWIDTH 11 0
BBX 10 19 0 0
BITMAP
03C0
03C0
03C0
03C0
03C0
03C0
03C0
03C0
03C0
03C0
03C0
03C0
03C0
07C0
FFC0
FFC0
FF80
FF80
FE00
ENDCHAR
STARTCHAR 004B
ENCODING 75
SWIDTH 576 0
DWIDTH 16 0
BBX 15 19 1 0
BITMAP
F83E
F87E
F87C
F87C
F8F8
F9F8
FFF0
FFE0
FFF8
FFFC
FFFC
F87C
F83E
F83E
F83E
F83E
F83E
F83E
F83E
ENDCHAR
STARTCHAR 004C
ENCODING 76
SWIDTH 432 0
DWIDTH 12 0
BBX 11 19 1 0
BITMAP
F800
F800
F800
F800
F800
F800
F800
F800
F800
F800
F800
F800
F800
F800
FFE0
7FE0
7FE0
3FE0
0FE0
ENDCHAR
STARTCHAR 004D
ENCODING 77
SWIDTH 828 0
DWIDTH 23 0
BBX 23 20 0 0
BITMAP
0600E0
1F81F0
1F83F0
1FC3F8
3FC7F8
3DC7F8
3DC778
3DE778
3DEF78
3DEF7C
3CEF7C
7CEE3C
7CFE3C
7CFE3C
7CFE3C
787E3C
787C3C
787C3E
787C3E
F8383E
ENDCHAR
STARTCHAR 004E
ENCODING 78
SWIDTH 648 0
DWIDTH 18 0
BBX 16 20 1 0
BITMAP
3800
7C1F
FE1F
FE1F
FF1F
FF1F
FF9F
FF9F
FFDF
FBDF
FBFF
F9EF
F9FF
F8FF
F87F
F87F
F83F
F83F
F81F
F80E
ENDCHAR
STARTCHAR 004F
ENCODING 79
SWIDTH 756 0
DWIDTH 21 0
BBX 20 20 1 0
BITMAP
01F000
07FE00
1FFF00
3FFF80
3FFFC0
7F0FE0
FC07E0
F803E0
F803F0
F801F0
F801F0
F801F0
F803E0
FC03E0
7E07E0
7FFFC0
3FFFC0
1FFF80
0FFF00
03FC00
ENDCHAR
STARTCHAR 0050
ENCODING 80
SWIDTH 540 0
DWIDTH 15 0
BBX 14 20 1 0
BITMAP
0780
1FF0
3FF8
7FF8
7FFC
FC7C
F87C
F87C
F87C
FBFC
FBF8
FBF8
FBE0
FB80
F800
F800
F800
F800
F800
F800
ENDCHAR
STARTCHAR 0051
ENCODING 81
SWIDTH 756 0
DWIDTH 21 0
BBX 20 23 1 -3
BITMAP
01F000
07FE00
1FFF00
3FFF80
3FFFC0
7F0FE0
FC07E0
F803E0
F803F0
F801F0
F801F0
F801F0
F8F3F0
FCF3E0
7EF7E0
7EFFC0
3EFFC0
1EFF80
0EFF00
02FC00
00F000
00F000
00F000
ENDCHAR
STARTCHAR 0052
ENCODING 82
SWIDTH 576 0
DWIDTH 16 0
BBX 14 20 1 0
BITMAP
0780
1FF0
3FF8
7FF8
7FFC
FC7C
F87C
F87C
FBF8
FBF0
FBF8
FBFC
FBFC
F87C
F87C
F87C
F87C
F87C
F87C
F87C
ENDCHAR
STARTCHAR 0053
ENCODING 83
SWIDTH 504 0
DWIDTH 14 0
BBX 13 19 1 0
BITMAP
3FF0
7FF0
FFF0
FFF0
F800
F800
FC00
7F00
7FC0
1FE0
0FF0
03F8
01F8
00F8
FFF8
FFF8
FFF0
FFE0
FFC0
ENDCHAR
STARTCHAR 0054
ENCODING 84
SWIDTH 468 0
DWIDTH 13 0
BBX 14 19 0 0
BITMAP
FFFC
FFFC
FFFC
FFFC
0F80
0F80
0F80
0F80
0F80
0F80
0F80
0F80
0F80
0F80
0F80
0F80
0F80
0F80
0F80
ENDCHAR
STARTCHAR 0055
ENCODING 85
SWIDTH 612 0
DWIDTH 17 0
BBX 15 19 1 0
BITMAP
F83E
F83E
F83E
F83E
F83E
F83E
F83E
F83E
F83E
F83E
F83E
F83E
F83E
7C3E
7EFE
7FFC
3FFC
1FF8
0FE0
ENDCHAR
STARTCHAR 0056
ENCODING 86
SWIDTH 540 0
DWIDTH 15 0
BBX 16 19 0 0
BITMAP
F81F
F83E
F83E
783E
7C3E
7C7C
7C7C
3C7C
3E7C
3EF8
3EF8
1EF8
1FF0
1FF0
1FF0
0FF0
0FE0
0FE0
07C0
ENDCHAR
STARTCHAR 0057
ENCODING 87
SWIDTH 900 0
DWIDTH 25 0
BBX 23 19 1 0
BITMAP
F87C3E
F87C3E
F87C3E
F87C3E
F87C3E
F87C3E
F87C3E
F87C3E
F87C3E
F87C3E
F87C3E
F87C3E
F87C3E
F87C3E
7CFE7E
7FFFFC
3FFFFC
3FFFF8
0FC7F0
ENDCHAR
STARTCHAR 0058
ENCODING 88
SWIDTH 612 0
DWIDTH 17 0
BBX 16 19 1 0
BITMAP
F00F
FC3F
FE7F
FFFF
3FFC
0FF0
07E0
07E0
07C0
07C0
07E0
07E0
0FE0
1FF8
FFFF
FFFF
FE7F
F83F
E007
ENDCHAR
STARTCHAR 0059
ENCODING 89
SWIDTH 540 0
DWIDTH 15 0
BBX 14 19 1 0
BITMAP
F87C
F87C
F87C
F87C
F87C
F87C
F87C
F8F8
7FF8
7FF8
3FF0
1FE0
0F80
0F80
0F80
0F80
0F80
0F80
0F80
ENDCHAR
STARTCHAR 005A
ENCODING 90
SWIDTH 504 0
DWIDTH 14 0
BBX 14 19 0 0
BITMAP
7FFC
7FFC
7FFC
7FFC
00FC
01F8
01F0
03F0
07E0
0FC0
0F80
1F80
3F00
7E00
7FFC
FFFC
FFFC
7FFC
3FFC
ENDCHAR
STARTCHAR 005B
ENCODING 91
SWIDTH 324 0
DWIDTH 9 0
BBX 6 25 2 -6
BITMAP
FC
F0
F0
F0
F0
F0
F0
F0
F0
F0
F0
F0
F0
F0
F0
F0
F0
F0
F0
F0
F0
F0
F0
FC
FC
ENDCHAR
STARTCHAR 005C
ENCODING 92
SWIDTH 252 0
DWIDTH 7 0
BBX 10 23 -1 -3
BITMAP
E000
E000
6000
7000
7000
3000
3000
3800
1800
1800
1C00
0C00
0C00
0E00
0600
0600
0700
0700
0300
0380
0380
0180
01C0
ENDCHAR
STARTCHAR 005D
ENCODING 93
SWIDTH 324 0
DWIDTH 9 0
BBX 6 25 1 -6
BITMAP
FC
3C
3C
3C
3C
3C
3C
3C
3C
3C
3C
3C
3C
3C
3C
3C
3C
3C
3C
3C
3C
3C
3C
FC
FC
ENDCHAR
STARTCHAR 005E
ENCODING 94
SWIDTH 972 0
DWIDTH 27 0
BBX 16 8 6 12
BITMAP
03C0
07E0
0FF0
1FF8
3E78
3C3C
781E
F00F
ENDCHAR
STARTCHAR 005F
ENCODING 95
SWIDTH 468 0
DWIDTH 13 0
BBX 14 4 0 -7
BITMAP
FFFC
FFFC
FFFC
FFFC
ENDCHAR
STARTCHAR 0060
ENCODING 96
SWIDTH 468 0
DWIDTH 13 0
BBX 6 5 3 15
BITMAP
F0
70
38
18
0C
ENDCHAR
STARTCHAR 0061
ENCODING 97
SWIDTH 540 0
DWIDTH 15 0
BBX 13 14 1 0
BITMAP
0F80
3FE0
7FF0
FFF8
FDF8
F078
F078
F078
F078
F878
FF78
7F78
3F78
1F78
ENDCHAR
STARTCHAR 0062
ENCODING 98
SWIDTH 540 0
DWIDTH 15 0
BBX 14 19 1 0
BITMAP
F000
F000
F000
F000
F000
F7C0
F7F0
F7F8
F7F8
F0FC
F07C
F07C
F07C
F87C
FCFC
7FF8
7FF8
3FF0
0FC0
ENDCHAR
STARTCHAR 0063
ENCODING 99
SWIDTH 360 0
DWIDTH 10 0
BBX 9 14 1 0
BITMAP
0380
1F80
7F80
7F80
FE00
F800
F000
F000
F800
FC00
FF80
7F80
3F80
0F80
ENDCHAR
STARTCHAR 0064
ENCODING 100
SWIDTH 540 0
DWIDTH 15 0
BBX 13 19 1 0
BITMAP
0078
0078
0078
0078
0078
0F78
3F78
7F78
FF78
FD78
F878
F078
F078
F078
F8F8
FFF8
7FF0
3FE0
1FC0
ENDCHAR
STARTCHAR 0065
ENCODING 101
SWIDTH 540 0
DWIDTH 15 0
BBX 14 14 1 0
BITMAP
0F80
3FE0
7FF0
7DF8
F9F8
F3E0
F7C0
F300
F238
F87C
FFF8
7FF8
3FF0
0FC0
ENDCHAR
STARTCHAR 0066
ENCODING 102
SWIDTH 324 0
DWIDTH 9 0
BBX 9 19 1 0
BITMAP
3F80
7F80
7F80
FF80
F800
FF80
FF80
FF80
FF80
F800
F800
F800
F800
F800
F800
F800
F800
F800
F800
ENDCHAR
STARTCHAR 0067
ENCODING 103
SWIDTH 540 0
DWIDTH 15 0
BBX 13 20 1 -6
BITMAP
0F80
3FE0
7FF0
FFF8
FDF8
F878
F078
F078
F078
F8F8
FFF8
7FF8
3FF8
0FF8
0078
00F8
3FF8
3FF0
3FE0
3FC0
ENDCHAR
STARTCHAR 0068
ENCODING 104
SWIDTH 540 0
DWIDTH 15 0
BBX 13 19 1 0
BITMAP
F800
F800
F800
F800
F800
FBC0
FFE0
FFF0
FFF0
FCF8
F8F8
F878
F878
F878
F878
F878
F878
F878
F878
ENDCHAR
STARTCHAR 0069
ENCODING 105
SWIDTH 216 0
DWIDTH 6 0
BBX 5 20 1 0
BITMAP
70
F8
F8
F8
70
00
F8
F8
F8
F8
F8
F8
F8
F8
F8
F8
F8
F8
F8
F8
ENDCHAR
STARTCHAR 006A
ENCODING 106
SWIDTH 216 0
DWIDTH 6 0
BBX 8 26 -2 -6
BITMAP
0E
1F
1F
1F
0E
00
1F
1F
1F
1F
1F
1F
1F
1F
1F
1F
1F
1F
1F
1F
1F
1F
FE
FE
FC
F8
ENDCHAR
STARTCHAR 006B
ENCODING 107
SWIDTH 504 0
DWIDTH 14 0
BBX 13 19 1 0
BITMAP
F800
F800
F800
F800
F800
F8F8
F8F0
F9F0
F9F0
FBE0
FFC0
FFE0
FFF0
FFF0
F8F0
F8F8
F8F8
F8F8
F8F8
ENDCHAR
STARTCHAR 006C
ENCODING 108
SWIDTH 216 0
DWIDTH 6 0
BBX 5 19 1 0
BITMAP
F8
F8
F8
F8
F8
F8
F8
F8
F8
F8
F8
F8
F8
F8
F8
F8
F8
F8
F8
ENDCHAR
STARTCHAR 006D
ENCODING 109
SWIDTH 792 0
DWIDTH 22 0
BBX 20 14 1 0
BITMAP
1F0F80
3FFFC0
7FFFE0
7FFFE0
F9F9F0
F0F0F0
F0F0F0
F0F0F0
F0F0F0
F0F0F0
F0F0F0
F0F0F0
F0F0F0
F0F0F0
ENDCHAR
STARTCHAR 006E
ENCODING 110
SWIDTH 504 0
DWIDTH 14 0
BBX 13 14 1 0
BITMAP
0F80
3FE0
7FF0
7FF0
F9F0
F8F8
F0F8
F0F8
F0F8
F0F8
F0F8
F0F8
F0F8
F0F8
ENDCHAR
STARTCHAR 006F
ENCODING 111
SWIDTH 540 0
DWIDTH 15 0
BBX 14 14 1 0
BITMAP
0F80
3FE0
7FF0
7FF8
FCF8
F878
F07C
F07C
F078
F8F8
FFF8
7FF0
3FE0
0FC0
ENDCHAR
STARTCHAR 0070
ENCODING 112
SWIDTH 540 0
DWIDTH 15 0
BBX 14 20 1 -6
BITMAP
0FC0
1FE0
3FF0
7FF8
FCFC
F87C
F07C
F07C
F07C
F0FC
F7F8
F7F8
F7F0
F7C0
F000
F000
F000
F000
F000
F000
ENDCHAR
STARTCHAR 0071
ENCODING 113
SWIDTH 540 0
DWIDTH 15 0
BBX 13 20 1 -6
BITMAP
0F80
3FE0
7FF0
FFF8
FDF8
F078
F078
F078
F078
F878
FF78
7F78
3F78
1F78
0078
0078
0078
0078
0078
0078
ENDCHAR
STARTCHAR 0072
ENCODING 114
SWIDTH 360 0
DWIDTH 10 0
BBX 9 14 1 0
BITMAP
F180
F780
FF80
FF80
FF00
F800
F800
F800
F000
F000
F000
F000
F000
F000
ENDCHAR
STARTCHAR 0073
ENCODING 115
SWIDTH 432 0
DWIDTH 12 0
BBX 10 14 1 0
BITMAP
1FC0
7FC0
FFC0
FFC0
F000
FC00
7F00
3F80
0FC0
03C0
FFC0
FFC0
FFC0
FF00
ENDCHAR
STARTCHAR 0074
ENCODING 116
SWIDTH 324 0
DWIDTH 9 0
BBX 8 17 1 0
BITMAP
F8
F8
F8
FF
FF
FF
FF
F8
F8
F8
F8
F8
F8
FF
7F
3F
1F
ENDCHAR
STARTCHAR 0075
ENCODING 117
SWIDTH 504 0
DWIDTH 14 0
BBX 13 14 1 0
BITMAP
F0F8
F0F8
F0F8
F0F8
F0F8
F0F8
F0F8
F0F8
F0F8
F8F0
7FF0
7FF0
3FE0
1FC0
ENDCHAR
STARTCHAR 0076
ENCODING 118
SWIDTH 468 0
DWIDTH 13 0
BBX 13 14 0 0
BITMAP
F078
F078
F8F8
78F8
78F0
7CF0
3DF0
3DE0
3DE0
1FE0
1FC0
1FC0
0F80
0F80
ENDCHAR
STARTCHAR 0077
ENCODING 119
SWIDTH 792 0
DWIDTH 22 0
BBX 20 14 1 0
BITMAP
F0F0F0
F0F0F0
F0F0F0
F0F0F0
F0F0F0
F0F0F0
F0F0F0
F0F0F0
F0F0F0
F8F9F0
7FFFF0
7FFFE0
3FFFC0
1F9F80
ENDCHAR
STARTCHAR 0078
ENCODING 120
SWIDTH 432 0
DWIDTH 12 0
BBX 12 14 0 0
BITMAP
C030
F9F0
FFF0
FFF0
7FE0
1F80
0F00
0F80
0F80
3FC0
FFF0
FFF0
F9F0
E070
ENDCHAR
STARTCHAR 0079
ENCODING 121
SWIDTH 504 0
DWIDTH 14 0
BBX 13 20 1 -6
BITMAP
F0F8
F0F8
F0F8
F0F8
F0F8
F0F8
F0F8
F0F8
F0F8
F8F8
7FF0
7FF0
3FE0
1FC0
0F80
0F80
0F80
0F80
0F80
0F80
ENDCHAR
STARTCHAR 007A
ENCODING 122
SWIDTH 432 0
DWIDTH 12 0
BBX 12 14 0 0
BITMAP
7FC0
7FF0
7FF0
7FF0
03E0
07E0
0FC0
1F80
3F00
7E00
7FF0
FFF0
7FF0
7FF0
ENDCHAR
STARTCHAR 007B
ENCODING 123
SWIDTH 468 0
DWIDTH 13 0
BBX 10 26 2 -6
BITMAP
07C0
0FC0
0FC0
0F00
1E00
1E00
1E00
1E00
1E00
1E00
1E00
FE00
FC00
FC00
7E00
1E00
1E00
1E00
1E00
1E00
1E00
1F00
0FC0
0FC0
0FC0
00C0
ENDCHAR
STARTCHAR 007C
ENCODING 124
SWIDTH 468 0
DWIDTH 13 0
BBX 4 28 5 -7
BITMAP
F0
F0
F0
F0
F0
F0
F0
F0
F0
F0
F0
F0
F0
F0
F0
F0
F0
F0
F0
F0
F0
F0
F0
F0
F0
F0
F0
F0
ENDCHAR
STARTCHAR 007D
ENCODING 125
SWIDTH 468 0
DWIDTH 13 0
BBX 10 26 2 -6
BITMAP
F800
FC00
FC00
3C00
1C00
1C00
1C00
1C00
1C00
1E00
1E00
1FC0
07C0
0FC0
1F80
1E00
1E00
1C00
1C00
1C00
1C00
3C00
FC00
FC00
FC00
C000
ENDCHAR
STARTCHAR 007E
ENCODING 126
SWIDTH 828 0
DWIDTH 23 0
BBX 19 6 2 5
BITMAP
0F0020
7FE0E0
FFFFE0
FBFFE0
C03F80
800000
ENDCHAR
STARTCHAR 0080
ENCODING 128
SWIDTH 540 0
DWIDTH 15 0
BBX 15 19 0 0
BITMAP
00FE
03FE
07FE
0FFE
0FC0
1F00
1F00
FFFC
1E00
1E00
FFF8
FFF8
1F00
1F80
0FF0
0FFE
07FE
01FE
007E
ENDCHAR
STARTCHAR 00A0
ENCODING 160
SWIDTH 540 0
DWIDTH 15 0
BBX 0 0 0 0
BITMAP
ENDCHAR
STARTCHAR 00A1
ENCODING 161
SWIDTH 324 0
DWIDTH 9 0
BBX 5 20 2 0
BITMAP
70
F8
F8
F8
F8
70
00
F8
F8
F8
F8
F8
F8
F8
F8
F8
F8
F8
F8
F8
ENDCHAR
STARTCHAR 00A2
ENCODING 162
SWIDTH 540 0
DWIDTH 15 0
BBX 9 19 3 0
BITMAP
0600
0600
0600
0600
3F80
7F80
7F80
F800
F000
F000
F000
FE00
7F80
7F80
1F80
0600
0600
0600
0600
ENDCHAR
STARTCHAR 00A3
ENCODING 163
SWIDTH 540 0
DWIDTH 15 0
BBX 15 20 0 0
BITMAP
01E0
07F0
0FF0
0FF0
1FF0
1F00
1F00
7FC0
7FC0
7FC0
7FC0
1F1E
1F1E
1E1E
3E3E
FFFE
FFFE
FFFC
FFF8
FFF0
ENDCHAR
STARTCHAR 00A4
ENCODING 164
SWIDTH 540 0
DWIDTH 15 0
BBX 15 19 0 0
BITMAP
00FE
03FE
07FE
0FFE
0FC0
1F00
1F00
FFFC
1E00
1E00
FFF8
FFF8
1F00
1F80
0FF0
0FFE
07FE
01FE
007E
ENDCHAR
STARTCHAR 00A5
ENCODING 165
SWIDTH 576 0
DWIDTH 16 0
BBX 16 19 0 0
BITMAP
781F
781E
7C1E
3C3E
3E3C
FE7F
FE7F
0F78
0FF0
FFFF
FFFF
03E0
03C0
03C0
03C0
03C0
03C0
03C0
03C0
ENDCHAR
STARTCHAR 00A6
ENCODING 166
SWIDTH 468 0
DWIDTH 13 0
BBX 4 24 5 -5
BITMAP
F0
F0
F0
F0
F0
F0
F0
F0
F0
F0
00
00
00
F0
F0
F0
F0
F0
F0
F0
F0
F0
F0
F0
ENDCHAR
STARTCHAR 00A7
ENCODING 167
SWIDTH 504 0
DWIDTH 14 0
BBX 12 21 2 -2
BITMAP
3FC0
FFC0
FFC0
FFC0
F800
F800
7E00
7F80
FFC0
F3E0
F0F0
FDF0
3FE0
1FC0
03E0
01E0
03F0
FFF0
FFE0
FFE0
FF80
ENDCHAR
STARTCHAR 00A8
ENCODING 168
SWIDTH 468 0
DWIDTH 13 0
BBX 8 4 3 16
BITMAP
40
E7
E7
E7
ENDCHAR
STARTCHAR 00A9
ENCODING 169
SWIDTH 828 0
DWIDTH 23 0
BBX 21 20 1 0
BITMAP
01FC00
07FF00
0E0380
1800C0
30F860
71FE30
638E30
678730
C70018
C70018
C70018
470018
678730
638E30
71FE30
30F860
1800C0
0E0380
07FF00
01FC00
ENDCHAR
STARTCHAR 00AA
ENCODING 170
SWIDTH 396 0
DWIDTH 11 0
BBX 11 10 0 10
BITMAP
0600
3F80
7FC0
7BE0
71E0
F0E0
70E0
7EE0
3EE0
1EE0
ENDCHAR
STARTCHAR 00AB
ENCODING 171
SWIDTH 540 0
DWIDTH 15 0
BBX 12 9 2 2
BITMAP
3CE0
39C0
73C0
E380
E780
7380
79C0
38E0
1C70
ENDCHAR
STARTCHAR 00AC
ENCODING 172
SWIDTH 828 0
DWIDTH 23 0
BBX 17 7 3 5
BITMAP
FFFF80
FFFF80
FFFF80
000380
000380
000380
000380
ENDCHAR
STARTCHAR 00AD
ENCODING 173
SWIDTH 324 0
DWIDTH 9 0
BBX 7 4 1 5
BITMAP
FE
FE
FE
FE
ENDCHAR
STARTCHAR 00AE
ENCODING 174
SWIDTH 828 0
DWIDTH 23 0
BBX 21 20 1 0
BITMAP
01FC00
07FF00
0E0380
1800C0
33F860
73FE30
638E30
638F30
C38E18
C3FE18
C3F818
43BC18
639C30
639E30
738E30
300060
1800C0
0E0380
07FF00
01FC00
ENDCHAR
STARTCHAR 00AF
ENCODING 175
SWIDTH 468 0
DWIDTH 13 0
BBX 8 2 3 17
BITMAP
FF
FF
ENDCHAR
STARTCHAR 00B0
ENCODING 176
SWIDTH 324 0
DWIDTH 9 0
BBX 9 9 0 11
BITMAP
1C00
7F00
6300
C180
C180
E380
7700
3E00
0800
ENDCHAR
STARTCHAR 00B1
ENCODING 177
SWIDTH 828 0
DWIDTH 23 0
BBX 17 17 3 0
BITMAP
01C000
01C000
01C000
01C000
FFFF80
FFFF80
FFFF80
FFFF80
01C000
01C000
01C000
01C000
000000
000000
FFFF80
FFFF80
FFFF80
ENDCHAR
STARTCHAR 00B2
ENCODING 178
SWIDTH 360 0
DWIDTH 10 0
BBX 9 12 1 8
BITMAP
1800
7E00
FF00
E700
E700
EF00
5E00
3C00
7800
F000
FF80
FF80
ENDCHAR
STARTCHAR 00B3
ENCODING 179
SWIDTH 360 0
DWIDTH 10 0
BBX 9 11 1 8
BITMAP
FF00
FF00
0F00
1E00
3C00
3F00
0700
0380
0F00
FF00
FE00
ENDCHAR
STARTCHAR 00B4
ENCODING 180
SWIDTH 468 0
DWIDTH 13 0
BBX 5 5 5 15
BITMAP
38
70
70
E0
C0
ENDCHAR
STARTCHAR 00B5
ENCODING 181
SWIDTH 612 0
DWIDTH 17 0
BBX 18 21 -1 -6
BITMAP
0F07C0
1F07C0
1F07C0
1F07C0
1F0780
1F0F80
1F0F80
3E0F80
3E0F80
3E0F80
3E1F00
3F3F00
3FFF00
3FFF00
7DFF00
7C0000
7C0000
7C0000
7C0000
780000
F80000
ENDCHAR
STARTCHAR 00B6
ENCODING 182
SWIDTH 468 0
DWIDTH 13 0
BBX 14 20 0 0
BITMAP
1FFC
3FFC
7F30
FF30
FF30
FF30
7F30
7F30
3F30
0730
0730
0730
0730
0730
0730
0730
0730
0730
0730
0730
ENDCHAR
STARTCHAR 00B7
ENCODING 183
SWIDTH 252 0
DWIDTH 7 0
BBX 6 6 1 7
BITMAP
30
78
FC
FC
78
30
ENDCHAR
STARTCHAR 00B8
ENCODING 184
SWIDTH 468 0
DWIDTH 13 0
BBX 7 8 4 -7
BITMAP
10
10
3C
3E
06
8E
FC
10
ENDCHAR
STARTCHAR 00B9
ENCODING 185
SWIDTH 360 0
DWIDTH 10 0
BBX 5 11 3 8
BITMAP
F8
F8
78
78
78
78
78
78
78
78
78
ENDCHAR
STARTCHAR 00BA
ENCODING 186
SWIDTH 396 0
DWIDTH 11 0
BBX 10 10 1 10
BITMAP
0800
7F00
FF80
F7C0
E3C0
E1C0
E3C0
FF80
7F80
3F00
ENDCHAR
STARTCHAR 00BB
ENCODING 187
SWIDTH 540 0
DWIDTH 15 0
BBX 12 9 1 2
BITMAP
73C0
39C0
1CE0
1C70
1E70
1CE0
39E0
71C0
E380
ENDCHAR
STARTCHAR 00BC
ENCODING 188
SWIDTH 864 0
DWIDTH 24 0
BBX 22 19 2 0
BITMAP
F80380
F80700
380600
380E00
380C00
381C00
383800
383800
387078
3860E8
00E1D8
00C1F8
01C3B8
038338
0387FC
0707FC
0603FC
0E0038
0C0038
ENDCHAR
STARTCHAR 00BD
ENCODING 189
SWIDTH 864 0
DWIDTH 24 0
BBX 22 19 2 0
BITMAP
F80380
F80700
380600
380E00
380C00
381C00
383800
383800
3871F0
3863F8
00E7B8
00C738
01C3B8
038370
0380E0
0701C0
0603FC
0E07FC
0C03FC
ENDCHAR
STARTCHAR 00BE
ENCODING 190
SWIDTH 864 0
DWIDTH 24 0
BBX 23 19 1 0
BITMAP
FE01C0
FF0380
0E0300
1C0700
3E0600
3F0E00
071C00
071C00
FF383C
FE3074
0070EC
0060FC
00E1DC
01C19C
01C3FE
0383FE
0301FE
07001C
06001C
ENDCHAR
STARTCHAR 00BF
ENCODING 191
SWIDTH 504 0
DWIDTH 14 0
BBX 13 20 1 0
BITMAP
0700
0F80
0F80
0F80
0F80
0700
0000
0F80
0F80
3F80
7F80
FF80
FE00
F800
F8C0
F8F8
FFF0
7FF0
3FE0
1FC0
ENDCHAR
STARTCHAR 00C0
ENCODING 192
SWIDTH 612 0
DWIDTH 17 0
BBX 15 26 1 0
BITMAP
0F00
0700
0380
0180
00C0
0000
03C0
1FF0
3FF8
3FFC
7FFC
7C7E
F83E
F83E
FBFE
FBFE
FBFE
FBFE
FBFE
F83E
F83E
F83E
F83E
F83E
F83E
F83E
ENDCHAR
STARTCHAR 00C1
ENCODING 193
SWIDTH 612 0
DWIDTH 17 0
BBX 15 26 1 0
BITMAP
00E0
01C0
0180
0380
0300
0000
03C0
1FF0
3FF8
3FFC
7FFC
7C7E
F83E
F83E
FBFE
FBFE
FBFE
FBFE
FBFE
F83E
F83E
F83E
F83E
F83E
F83E
F83E
ENDCHAR
STARTCHAR 00C2
ENCODING 194
SWIDTH 612 0
DWIDTH 17 0
BBX 15 26 1 0
BITMAP
0380
07C0
07C0
0E60
0C60
0000
03C0
1FF0
3FF8
3FFC
7FFC
7C7E
F83E
F83E
FBFE
FBFE
FBFE
FBFE
FBFE
F83E
F83E
F83E
F83E
F83E
F83E
F83E
ENDCHAR
STARTCHAR 00C3
ENCODING 195
SWIDTH 612 0
DWIDTH 17 0
BBX 15 26 1 0
BITMAP
0030
07F0
0FE0
08C0
0000
0000
03C0
1FF0
3FF8
3FFC
7FFC
7C7E
F83E
F83E
FBFE
FBFE
FBFE
FBFE
FBFE
F83E
F83E
F83E
F83E
F83E
F83E
F83E
ENDCHAR
STARTCHAR 00C4
ENCODING 196
SWIDTH 612 0
DWIDTH 17 0
BBX 15 25 1 0
BITMAP
0EF0
0EF0
0E60
0000
0000
03C0
1FF0
3FF8
3FFC
7FFC
7C7E
F83E
F83E
FBFE
FBFE
FBFE
FBFE
FBFE
F83E
F83E
F83E
F83E
F83E
F83E
F83E
ENDCHAR
STARTCHAR 00C5
ENCODING 197
SWIDTH 612 0
DWIDTH 17 0
BBX 15 27 1 0
BITMAP
0180
07C0
0EE0
0C60
0C60
07E0
07C0
03C0
1FF0
3FF8
3FFC
7FFC
7C7E
F83E
F83E
FBFE
FBFE
FBFE
FBFE
FBFE
F83E
F83E
F83E
F83E
F83E
F83E
F83E
ENDCHAR
STARTCHAR 00C6
ENCODING 198
SWIDTH 864 0
DWIDTH 24 0
BBX 22 20 1 0
BITMAP
038000
1FF0FC
3FFBFC
3FFFFC
7FFFFC
7C7FC0
F83F00
F83E00
FBFFFC
FBFFFC
FBFFFC
FBFFFC
F83E00
F83E00
F83F00
F83FF0
F83FFC
F83FFC
F83FFC
F83E7C
ENDCHAR
STARTCHAR 00C7
ENCODING 199
SWIDTH 504 0
DWIDTH 14 0
BBX 12 26 1 -7
BITMAP
03F0
0FF0
1FF0
3FF0
7F00
FC00
F800
F800
F800
F800
F800
F800
FC00
7E00
7FF0
3FF0
1FF0
0FF0
01F0
0100
01C0
03E0
0060
0860
0FE0
0180
ENDCHAR
STARTCHAR 00C8
ENCODING 200
SWIDTH 504 0
DWIDTH 14 0
BBX 12 26 1 0
BITMAP
0700
0380
0380
01C0
00C0
0000
0000
03F0
0FF0
1FF0
3FF0
7F00
FC00
F800
FFF0
FFF0
FFF0
FFF0
F800
FC00
7E00
7FF0
3FF0
1FF0
0FF0
01F0
ENDCHAR
STARTCHAR 00C9
ENCODING 201
SWIDTH 504 0
DWIDTH 14 0
BBX 12 26 1 0
BITMAP
00F0
00E0
01C0
0180
0300
0000
0000
03F0
0FF0
1FF0
3FF0
7F00
FC00
F800
FFF0
FFF0
FFF0
FFF0
F800
FC00
7E00
7FF0
3FF0
1FF0
0FF0
01F0
ENDCHAR
STARTCHAR 00CA
ENCODING 202
SWIDTH 504 0
DWIDTH 14 0
BBX 12 26 1 0
BITMAP
03C0
03C0
07E0
0660
0C30
0000
0000
03F0
0FF0
1FF0
3FF0
7F00
FC00
F800
FFF0
FFF0
FFF0
FFF0
F800
FC00
7E00
7FF0
3FF0
1FF0
0FF0
01F0
ENDCHAR
STARTCHAR 00CB
ENCODING 203
SWIDTH 504 0
DWIDTH 14 0
BBX 12 25 1 0
BITMAP
0E70
0E70
0E70
0000
0000
0000
03F0
0FF0
1FF0
3FF0
7F00
FC00
F800
FFF0
FFF0
FFF0
FFF0
F800
FC00
7E00
7FF0
3FF0
1FF0
0FF0
01F0
ENDCHAR
STARTCHAR 00CC
ENCODING 204
SWIDTH 252 0
DWIDTH 7 0
BBX 6 26 0 0
BITMAP
F0
70
38
18
0C
00
00
7C
7C
7C
7C
7C
7C
7C
7C
7C
7C
7C
7C
7C
7C
7C
7C
7C
7C
7C
ENDCHAR
STARTCHAR 00CD
ENCODING 205
SWIDTH 252 0
DWIDTH 7 0
BBX 6 26 1 0
BITMAP
1C
38
38
70
60
00
00
F8
F8
F8
F8
F8
F8
F8
F8
F8
F8
F8
F8
F8
F8
F8
F8
F8
F8
F8
ENDCHAR
STARTCHAR 00CE
ENCODING 206
SWIDTH 252 0
DWIDTH 7 0
BBX 8 26 0 0
BITMAP
3C
7C
6E
E7
C3
00
00
7C
7C
7C
7C
7C
7C
7C
7C
7C
7C
7C
7C
7C
7C
7C
7C
7C
7C
7C
ENDCHAR
STARTCHAR 00CF
ENCODING 207
SWIDTH 252 0
DWIDTH 7 0
BBX 8 25 0 0
BITMAP
E7
E7
E7
00
00
00
7C
7C
7C
7C
7C
7C
7C
7C
7C
7C
7C
7C
7C
7C
7C
7C
7C
7C
7C
ENDCHAR
STARTCHAR 00D0
ENCODING 208
SWIDTH 612 0
DWIDTH 17 0
BBX 17 19 0 0
BITMAP
3FE000
3FF800
3FFC00
3FFE00
3C7F00
3C1F00
3C1F80
FF8F80
FF8F80
FF8F80
3C0F80
3C0F80
3C1F80
3C3F00
3DFF00
3DFE00
3DFC00
3DF800
3DC000
ENDCHAR
STARTCHAR 00D1
ENCODING 209
SWIDTH 648 0
DWIDTH 18 0
BBX 16 26 1 0
BITMAP
0010
07B0
0FF0
0C60
0000
0000
3800
7C1F
FE1F
FE1F
FF1F
FF1F
FF9F
FF9F
FFDF
FBDF
FBFF
F9EF
F9FF
F8FF
F87F
F87F
F83F
F83F
F81F
F80E
ENDCHAR
STARTCHAR 00D2
ENCODING 210
SWIDTH 756 0
DWIDTH 21 0
BBX 20 26 1 0
BITMAP
03C000
01C000
00E000
006000
003000
000000
01F000
07FE00
1FFF00
3FFF80
3FFFC0
7F0FE0
FC07E0
F803E0
F803F0
F801F0
F801F0
F801F0
F803E0
FC03E0
7E07E0
7FFFC0
3FFFC0
1FFF80
0FFF00
03FC00
ENDCHAR
STARTCHAR 00D3
ENCODING 211
SWIDTH 756 0
DWIDTH 21 0
BBX 20 26 1 0
BITMAP
003800
007000
006000
00E000
00C000
000000
01F000
07FE00
1FFF00
3FFF80
3FFFC0
7F0FE0
FC07E0
F803E0
F803F0
F801F0
F801F0
F801F0
F803E0
FC03E0
7E07E0
7FFFC0
3FFFC0
1FFF80
0FFF00
03FC00
ENDCHAR
STARTCHAR 00D4
ENCODING 212
SWIDTH 756 0
DWIDTH 21 0
BBX 20 26 1 0
BITMAP
00E000
00F000
01F000
039800
031C00
000000
01F000
07FE00
1FFF00
3FFF80
3FFFC0
7F0FE0
FC07E0
F803E0
F803F0
F801F0
F801F0
F801F0
F803E0
FC03E0
7E07E0
7FFFC0
3FFFC0
1FFF80
0FFF00
03FC00
ENDCHAR
STARTCHAR 00D5
ENCODING 213
SWIDTH 756 0
DWIDTH 21 0
BBX 20 26 1 0
BITMAP
000400
01EC00
03F800
023000
000000
000000
01F000
07FE00
1FFF00
3FFF80
3FFFC0
7F0FE0
FC07E0
F803E0
F803F0
F801F0
F801F0
F801F0
F803E0
FC03E0
7E07E0
7FFFC0
3FFFC0
1FFF80
0FFF00
03FC00
ENDCHAR
STARTCHAR 00D6
ENCODING 214
SWIDTH 756 0
DWIDTH 21 0
BBX 20 25 1 0
BITMAP
039C00
03BC00
039800
000000
000000
01F000
07FE00
1FFF00
3FFF80
3FFFC0
7F0FE0
FC07E0
F803E0
F803F0
F801F0
F801F0
F801F0
F803E0
FC03E0
7E07E0
7FFFC0
3FFFC0
1FFF80
0FFF00
03FC00
ENDCHAR
STARTCHAR 00D7
ENCODING 215
SWIDTH 828 0
DWIDTH 23 0
BBX 16 16 4 0
BITMAP
6006
F00F
F81E
7C3C
3E78
1FF0
0FE0
07C0
07E0
0FF0
1EF8
3C7C
783E
F01F
E00E
4004
ENDCHAR
STARTCHAR 00D8
ENCODING 216
SWIDTH 756 0
DWIDTH 21 0
BBX 20 22 1 -1
BITMAP
000040
01E0E0
07FEE0
1FFFC0
3FFF80
3FFFC0
7E0FC0
FC1FE0
F83FE0
F839F0
F871F0
F8E1F0
F9C1F0
FB83E0
FF83E0
7F07E0
7FBFC0
3FFFC0
7FFF80
7FFF00
E3FC00
600000
ENDCHAR
STARTCHAR 00D9
ENCODING 217
SWIDTH 612 0
DWIDTH 17 0
BBX 15 26 1 0
BITMAP
0F00
0700
0380
0180
00C0
0000
0000
F83E
F83E
F83E
F83E
F83E
F83E
F83E
F83E
F83E
F83E
F83E
F83E
F83E
7C3E
7EFE
7FFC
3FFC
1FF8
0FE0
ENDCHAR
STARTCHAR 00DA
ENCODING 218
SWIDTH 612 0
DWIDTH 17 0
BBX 15 26 1 0
BITMAP
00E0
01C0
0180
0380
0300
0000
0000
F83E
F83E
F83E
F83E
F83E
F83E
F83E
F83E
F83E
F83E
F83E
F83E
F83E
7C3E
7EFE
7FFC
3FFC
1FF8
0FE0
ENDCHAR
STARTCHAR 00DB
ENCODING 219
SWIDTH 612 0
DWIDTH 17 0
BBX 15 26 1 0
BITMAP
03C0
07C0
06E0
0C60
0C30
0000
0000
F83E
F83E
F83E
F83E
F83E
F83E
F83E
F83E
F83E
F83E
F83E
F83E
F83E
7C3E
7EFE
7FFC
3FFC
1FF8
0FE0
ENDCHAR
STARTCHAR 00DC
ENCODING 220
SWIDTH 612 0
DWIDTH 17 0
BBX 15 25 1 0
BITMAP
0EF0
0EF0
0E60
0000
0000
0000
F83E
F83E
F83E
F83E
F83E
F83E
F83E
F83E
F83E
F83E
F83E
F83E
F83E
7C3E
7EFE
7FFC
3FFC
1FF8
0FE0
ENDCHAR
STARTCHAR 00DD
ENCODING 221
SWIDTH 540 0
DWIDTH 15 0
BBX 14 26 1 0
BITMAP
01C0
0380
0380
0700
0600
0000
0000
F87C
F87C
F87C
F87C
F87C
F87C
F87C
F8F8
7FF8
7FF8
3FF0
1FE0
0F80
0F80
0F80
0F80
0F80
0F80
0F80
ENDCHAR
STARTCHAR 00DE
ENCODING 222
SWIDTH 540 0
DWIDTH 15 0
BBX 14 20 1 0
BITMAP
F800
F800
F800
FFC0
FFF0
FFF8
FFFC
FFFC
FC7C
F87C
F87C
F8FC
FBFC
FBF8
FBF0
FBE0
F800
F800
F800
F800
ENDCHAR
STARTCHAR 00DF
ENCODING 223
SWIDTH 576 0
DWIDTH 16 0
BBX 16 20 0 0
BITMAP
0780
1FE0
3FF0
3FF8
3CF8
7C78
FCF8
FCF0
FDF0
FDF8
7CFC
7C3E
7C1F
7C1F
7C1F
7C1F
7DFE
7DFE
7DFC
7DF0
ENDCHAR
STARTCHAR 00E0
ENCODING 224
SWIDTH 540 0
DWIDTH 15 0
BBX 13 20 1 0
BITMAP
1E00
0E00
0700
0300
0180
0000
0F80
3FE0
7FF0
FFF8
FDF8
F078
F078
F078
F078
F878
FF78
7F78
3F78
1F78
ENDCHAR
STARTCHAR 00E1
ENCODING 225
SWIDTH 540 0
DWIDTH 15 0
BBX 13 20 1 0
BITMAP
01C0
0380
0300
0700
0600
0000
0F80
3FE0
7FF0
FFF8
FDF8
F078
F078
F078
F078
F878
FF78
7F78
3F78
1F78
ENDCHAR
STARTCHAR 00E2
ENCODING 226
SWIDTH 540 0
DWIDTH 15 0
BBX 13 20 1 0
BITMAP
0780
0F80
0DC0
18C0
1860
0000
0F80
3FE0
7FF0
FFF8
FDF8
F078
F078
F078
F078
F878
FF78
7F78
3F78
1F78
ENDCHAR
STARTCHAR 00E3
ENCODING 227
SWIDTH 540 0
DWIDTH 15 0
BBX 13 20 1 0
BITMAP
0020
0FE0
1FC0
1080
0000
0000
0F80
3FE0
7FF0
FFF8
FDF8
F078
F078
F078
F078
F878
FF78
7F78
3F78
1F78
ENDCHAR
STARTCHAR 00E4
ENCODING 228
SWIDTH 540 0
DWIDTH 15 0
BBX 13 20 1 0
BITMAP
0840
1CE0
1DE0
1CC0
0000
0000
0F80
3FE0
7FF0
FFF8
FDF8
F078
F078
F078
F078
F878
FF78
7F78
3F78
1F78
ENDCHAR
STARTCHAR 00E5
ENCODING 229
SWIDTH 540 0
DWIDTH 15 0
BBX 13 22 1 0
BITMAP
0780
0FC0
0CE0
0860
0CE0
0FC0
0780
0000
0F80
3FE0
7FF0
FFF8
FDF8
F078
F078
F078
F078
F878
FF78
7F78
3F78
1F78
ENDCHAR
STARTCHAR 00E6
ENCODING 230
SWIDTH 828 0
DWIDTH 23 0
BBX 23 14 0 0
BITMAP
1F87E0
7FEFF0
3FFFF8
39FFFC
00FC7E
0FF9FE
3FF9F8
7F79C0
787908
F8FC1C
F9FFFE
FFFFFC
7FDFF8
3F87E0
ENDCHAR
STARTCHAR 00E7
ENCODING 231
SWIDTH 360 0
DWIDTH 10 0
BBX 9 21 1 -7
BITMAP
0380
1F80
7F80
7F80
FE00
F800
F000
F000
F800
FC00
FF80
7F80
3F80
0F80
0400
0700
0F80
0180
2180
3F80
0600
ENDCHAR
STARTCHAR 00E8
ENCODING 232
SWIDTH 540 0
DWIDTH 15 0
BBX 14 20 1 0
BITMAP
1E00
0E00
0700
0300
0180
0000
0F80
3FE0
7FF0
7DF8
F9F8
F3E0
F7C0
F300
F238
F87C
FFF8
7FF8
3FF0
0FC0
ENDCHAR
STARTCHAR 00E9
ENCODING 233
SWIDTH 540 0
DWIDTH 15 0
BBX 14 20 1 0
BITMAP
01C0
0380
0300
0600
0600
0000
0F80
3FE0
7FF0
7DF8
F9F8
F3E0
F7C0
F300
F238
F87C
FFF8
7FF8
3FF0
0FC0
ENDCHAR
STARTCHAR 00EA
ENCODING 234
SWIDTH 540 0
DWIDTH 15 0
BBX 14 20 1 0
BITMAP
0780
0F80
0DC0
18C0
1860
0000
0F80
3FE0
7FF0
7DF8
F9F8
F3E0
F7C0
F300
F238
F87C
FFF8
7FF8
3FF0
0FC0
ENDCHAR
STARTCHAR 00EB
ENCODING 235
SWIDTH 540 0
DWIDTH 15 0
BBX 14 19 1 1
BITMAP
1DE0
1DE0
1CC0
0000
0000
0F80
3FE0
7FF0
7DF8
F9F8
F3E0
F7C0
F300
F238
F87C
FFF8
7FF8
3FF0
0FC0
ENDCHAR
STARTCHAR 00EC
ENCODING 236
SWIDTH 216 0
DWIDTH 6 0
BBX 6 20 0 0
BITMAP
E0
70
38
18
0C
00
7C
7C
7C
7C
7C
7C
7C
7C
7C
7C
7C
7C
7C
7C
ENDCHAR
STARTCHAR 00ED
ENCODING 237
SWIDTH 216 0
DWIDTH 6 0
BBX 6 20 1 0
BITMAP
3C
38
70
60
C0
00
F8
F8
F8
F8
F8
F8
F8
F8
F8
F8
F8
F8
F8
F8
ENDCHAR
STARTCHAR 00EE
ENCODING 238
SWIDTH 216 0
DWIDTH 6 0
BBX 9 20 -1 0
BITMAP
3E00
3E00
7700
6300
C180
0000
3E00
3E00
3E00
3E00
3E00
3E00
3E00
3E00
3E00
3E00
3E00
3E00
3E00
3E00
ENDCHAR
STARTCHAR 00EF
ENCODING 239
SWIDTH 216 0
DWIDTH 6 0
BBX 9 19 -1 1
BITMAP
F700
F780
6300
0000
0000
3E00
3E00
3E00
3E00
3E00
3E00
3E00
3E00
3E00
3E00
3E00
3E00
3E00
3E00
ENDCHAR
STARTCHAR 00F0
ENCODING 240
SWIDTH 504 0
DWIDTH 14 0
BBX 13 19 1 0
BITMAP
1E40
0FE0
1FC0
3F80
37C0
03E0
1FE0
3DF0
7EF0
FEF8
F878
F078
F078
F078
F8F8
FFF0
7FF0
3FE0
1FC0
ENDCHAR
STARTCHAR 00F1
ENCODING 241
SWIDTH 504 0
DWIDTH 14 0
BBX 13 20 1 0
BITMAP
0060
1FC0
1FC0
3180
0000
0000
0F80
3FE0
7FF0
7FF0
F9F0
F8F8
F0F8
F0F8
F0F8
F0F8
F0F8
F0F8
F0F8
F0F8
ENDCHAR
STARTCHAR 00F2
ENCODING 242
SWIDTH 540 0
DWIDTH 15 0
BBX 14 20 1 0
BITMAP
1E00
0E00
0700
0300
0180
0000
0F80
3FE0
7FF0
7FF8
FCF8
F878
F07C
F07C
F078
F8F8
FFF8
7FF0
3FE0
0FC0
ENDCHAR
STARTCHAR 00F3
ENCODING 243
SWIDTH 540 0
DWIDTH 15 0
BBX 14 20 1 0
BITMAP
01C0
0380
0300
0600
0600
0000
0F80
3FE0
7FF0
7FF8
FCF8
F878
F07C
F07C
F078
F8F8
FFF8
7FF0
3FE0
0FC0
ENDCHAR
STARTCHAR 00F4
ENCODING 244
SWIDTH 540 0
DWIDTH 15 0
BBX 14 20 1 0
BITMAP
0780
0F80
0DC0
18C0
3060
0000
0F80
3FE0
7FF0
7FF8
FCF8
F878
F07C
F07C
F078
F8F8
FFF8
7FF0
3FE0
0FC0
ENDCHAR
STARTCHAR 00F5
ENCODING 245
SWIDTH 540 0
DWIDTH 15 0
BBX 14 20 1 0
BITMAP
0060
0FE0
1FC0
3180
0000
0000
0F80
3FE0
7FF0
7FF8
FCF8
F878
F07C
F07C
F078
F8F8
FFF8
7FF0
3FE0
0FC0
ENDCHAR
STARTCHAR 00F6
ENCODING 246
SWIDTH 540 0
DWIDTH 15 0
BBX 14 19 1 1
BITMAP
1DE0
1DE0
1CC0
0000
0000
0F80
3FE0
7FF0
7FF8
FCF8
F878
F07C
F07C
F078
F8F8
FFF8
7FF0
3FE0
0FC0
ENDCHAR
STARTCHAR 00F7
ENCODING 247
SWIDTH 828 0
DWIDTH 23 0
BBX 17 15 3 1
BITMAP
01C000
03E000
03E000
01C000
000000
000000
FFFF80
FFFF80
FFFF80
000000
000000
01C000
03E000
03E000
01C000
ENDCHAR
STARTCHAR 00F8
ENCODING 248
SWIDTH 540 0
DWIDTH 15 0
BBX 14 16 1 -1
BITMAP
0018
0FBC
3FF8
7FF0
7FF8
F9F8
F1F8
F3FC
F77C
FE7C
FCF8
7FF8
7FF0
FFE0
EFC0
C000
ENDCHAR
STARTCHAR 00F9
ENCODING 249
SWIDTH 504 0
DWIDTH 14 0
BBX 13 20 1 0
BITMAP
1C00
0E00
0600
0300
0180
0000
F0F8
F0F8
F0F8
F0F8
F0F8
F0F8
F0F8
F0F8
F0F8
F8F0
7FF0
7FF0
3FE0
1FC0
ENDCHAR
STARTCHAR 00FA
ENCODING 250
SWIDTH 504 0
DWIDTH 14 0
BBX 13 20 1 0
BITMAP
03C0
0380
0700
0600
0C00
0000
F0F8
F0F8
F0F8
F0F8
F0F8
F0F8
F0F8
F0F8
F0F8
F8F0
7FF0
7FF0
3FE0
1FC0
ENDCHAR
STARTCHAR 00FB
ENCODING 251
SWIDTH 504 0
DWIDTH 14 0
BBX 13 20 1 0
BITMAP
0F00
0F80
1DC0
18C0
3060
0000
F0F8
F0F8
F0F8
F0F8
F0F8
F0F8
F0F8
F0F8
F0F8
F8F0
7FF0
7FF0
3FE0
1FC0
ENDCHAR
STARTCHAR 00FC
ENCODING 252
SWIDTH 504 0
DWIDTH 14 0
BBX 13 19 1 1
BITMAP
3DC0
3DE0
18C0
0000
0000
F0F8
F0F8
F0F8
F0F8
F0F8
F0F8
F0F8
F0F8
F0F8
F8F0
7FF0
7FF0
3FE0
1FC0
ENDCHAR
STARTCHAR 00FD
ENCODING 253
SWIDTH 504 0
DWIDTH 14 0
BBX 13 26 1 -6
BITMAP
03C0
0380
0700
0600
0C00
0000
F0F8
F0F8
F0F8
F0F8
F0F8
F0F8
F0F8
F0F8
F0F8
F8F8
7FF0
7FF0
3FE0
1FC0
0F80
0F80
0F80
0F80
0F80
0F80
ENDCHAR
STARTCHAR 00FE
ENCODING 254
SWIDTH 540 0
DWIDTH 15 0
BBX 14 25 1 -6
BITMAP
F000
F000
F000
F000
F000
FFC0
FFE0
FFF0
FFF8
FCFC
F87C
F87C
F07C
F07C
F0FC
F7F8
F7F8
F7F0
F7C0
F000
F000
F000
F000
F000
F000
ENDCHAR
STARTCHAR 00FF
ENCODING 255
SWIDTH 504 0
DWIDTH 14 0
BBX 13 25 1 -5
BITMAP
3DC0
3DE0
18C0
0000
0000
F0F8
F0F8
F0F8
F0F8
F0F8
F0F8
F0F8
F0F8
F0F8
F8F8
7FF0
7FF0
3FE0
1FC0
0F80
0F80
0F80
0F80
0F80
0F80
ENDCHAR
STARTCHAR 0102
ENCODING 258
SWIDTH 612 0
DWIDTH 17 0
BBX 15 25 1 0
BITMAP
0830
0C70
0FE0
07C0
0000
03C0
1FF0
3FF8
3FFC
7FFC
7C7E
F83E
F83E
FBFE
FBFE
FBFE
FBFE
FBFE
F83E
F83E
F83E
F83E
F83E
F83E
F83E
ENDCHAR
STARTCHAR 0103
ENCODING 259
SWIDTH 540 0
DWIDTH 15 0
BBX 13 20 1 0
BITMAP
1060
1860
1FC0
0F80
0000
0000
0F80
3FE0
7FF0
FFF8
FDF8
F078
F078
F078
F078
F878
FF78
7F78
3F78
1F78
ENDCHAR
STARTCHAR 0106
ENCODING 262
SWIDTH 504 0
DWIDTH 14 0
BBX 12 26 1 0
BITMAP
00F0
00E0
01C0
0180
0300
0000
0000
03F0
0FF0
1FF0
3FF0
7F00
FC00
F800
F800
F800
F800
F800
F800
FC00
7E00
7FF0
3FF0
1FF0
0FF0
01F0
ENDCHAR
STARTCHAR 0107
ENCODING 263
SWIDTH 360 0
DWIDTH 10 0
BBX 9 20 1 0
BITMAP
0380
0700
0700
0E00
0C00
0000
0380
1F80
7F80
7F80
FE00
F800
F000
F000
F800
FC00
FF80
7F80
3F80
0F80
ENDCHAR
STARTCHAR 010C
ENCODING 268
SWIDTH 504 0
DWIDTH 14 0
BBX 12 26 1 0
BITMAP
0C30
0670
07E0
03C0
03C0
0000
0000
03F0
0FF0
1FF0
3FF0
7F00
FC00
F800
F800
F800
F800
F800
F800
FC00
7E00
7FF0
3FF0
1FF0
0FF0
01F0
ENDCHAR
STARTCHAR 010D
ENCODING 269
SWIDTH 360 0
DWIDTH 10 0
BBX 10 20 1 0
BITMAP
30C0
1980
1F80
0F00
0F00
0000
0380
1F80
7F80
7F80
FE00
F800
F000
F000
F800
FC00
FF80
7F80
3F80
0F80
ENDCHAR
STARTCHAR 0110
ENCODING 272
SWIDTH 612 0
DWIDTH 17 0
BBX 17 19 0 0
BITMAP
3FE000
3FF800
3FFC00
3FFE00
3C7F00
3C1F00
3C1F80
FF8F80
FF8F80
FF8F80
3C0F80
3C0F80
3C1F80
3C3F00
3DFF00
3DFE00
3DFC00
3DF800
3DC000
ENDCHAR
STARTCHAR 0111
ENCODING 273
SWIDTH 540 0
DWIDTH 15 0
BBX 15 19 1 0
BITMAP
0078
03FE
03FE
0078
0078
0F78
3F78
7F78
7F78
FD78
F878
F078
F078
F078
F8F8
FFF8
7FF0
3FE0
1FC0
ENDCHAR
STARTCHAR 011E
ENCODING 286
SWIDTH 756 0
DWIDTH 21 0
BBX 20 26 1 0
BITMAP
020C00
030C00
03F800
01F000
000000
000000
00F000
07FE00
1FFF80
3FFF80
3FFF00
7F0E00
FC0000
F80000
F87FF0
F87FF0
F87FF0
F87FE0
F803E0
FC03E0
7E07E0
7FFFC0
3FFF80
1FFF80
0FFF00
03FC00
ENDCHAR
STARTCHAR 011F
ENCODING 287
SWIDTH 540 0
DWIDTH 15 0
BBX 13 26 1 -6
BITMAP
1060
1860
1FC0
0F80
0000
0000
0F80
3FE0
7FF0
FFF8
FDF8
F878
F078
F078
F078
F8F8
FFF8
7FF8
3FF8
0FF8
0078
00F8
3FF8
3FF0
3FE0
3FC0
ENDCHAR
STARTCHAR 0128
ENCODING 296
SWIDTH 252 0
DWIDTH 7 0
BBX 8 26 0 0
BITMAP
01
7B
FE
8C
00
00
00
7C
7C
7C
7C
7C
7C
7C
7C
7C
7C
7C
7C
7C
7C
7C
7C
7C
7C
7C
ENDCHAR
STARTCHAR 0129
ENCODING 297
SWIDTH 216 0
DWIDTH 6 0
BBX 9 20 -1 0
BITMAP
0180
7F80
7F00
C600
0000
0000
3E00
3E00
3E00
3E00
3E00
3E00
3E00
3E00
3E00
3E00
3E00
3E00
3E00
3E00
ENDCHAR
STARTCHAR 0130
ENCODING 304
SWIDTH 252 0
DWIDTH 7 0
BBX 5 26 1 0
BITMAP
30
78
78
30
00
00
00
F8
F8
F8
F8
F8
F8
F8
F8
F8
F8
F8
F8
F8
F8
F8
F8
F8
F8
F8
ENDCHAR
STARTCHAR 0131
ENCODING 305
SWIDTH 216 0
DWIDTH 6 0
BBX 5 14 1 0
BITMAP
F8
F8
F8
F8
F8
F8
F8
F8
F8
F8
F8
F8
F8
F8
ENDCHAR
STARTCHAR 0141
ENCODING 321
SWIDTH 432 0
DWIDTH 12 0
BBX 12 19 0 0
BITMAP
7C00
7C00
7C00
7C00
7C80
7D80
7F80
7F80
7F00
FC00
FC00
FC00
FC00
3E00
3FF0
3FF0
3FF0
1FF0
07F0
ENDCHAR
STARTCHAR 0142
ENCODING 322
SWIDTH 252 0
DWIDTH 7 0
BBX 7 19 0 0
BITMAP
3C
3C
3C
3C
3C
3C
3E
3E
3E
FC
FC
FC
3C
3C
3C
3C
3C
3C
3C
ENDCHAR
STARTCHAR 0152
ENCODING 338
SWIDTH 1044 0
DWIDTH 29 0
BBX 27 20 1 0
BITMAP
01F00000
07FC0FE0
1FFF3FE0
3FFFFFE0
3FFFFFE0
7F0FFC00
FC07F000
F803F000
F803FFE0
F801FFE0
F801FFE0
F801FFE0
F803E000
FC03F000
7E07F800
7FFFFFC0
3FFFFFE0
1FFF3FE0
0FFE1FE0
03FC03E0
ENDCHAR
STARTCHAR 0153
ENCODING 339
SWIDTH 864 0
DWIDTH 24 0
BBX 23 14 1 0
BITMAP
0F83E0
3FEFF0
7FFFF8
7FFF7C
FCFC7C
F879F8
F07BE0
F079C8
F07C1E
F8FE3E
FFFFFE
7FFFFC
3FEFF8
1FC7E0
ENDCHAR
STARTCHAR 015E
ENCODING 350
SWIDTH 504 0
DWIDTH 14 0
BBX 13 25 1 -7
BITMAP
3FF0
7FF0
FFF0
FFF0
F800
F800
FC00
7F00
7FC0
1FE0
0FF0
03F8
01F8
00F8
FFF8
FFF8
FFF0
FFE0
FFC0
0200
0380
03C0
00E0
18E0
1FC0
ENDCHAR
STARTCHAR 015F
ENCODING 351
SWIDTH 432 0
DWIDTH 12 0
BBX 10 21 1 -7
BITMAP
1FC0
7FC0
FFC0
FFC0
F000
FC00
7F00
3F80
0FC0
03C0
FFC0
FFC0
FFC0
FF00
0400
0F00
0F80
0180
2380
3F80
0400
ENDCHAR
STARTCHAR 0160
ENCODING 352
SWIDTH 504 0
DWIDTH 14 0
BBX 13 26 1 0
BITMAP
18C0
1DC0
0D80
0F80
0700
0000
0000
3FF0
7FF0
FFF0
FFF0
F800
F800
FC00
7F00
7FC0
1FE0
0FF0
03F8
01F8
00F8
FFF8
FFF8
FFF0
FFE0
FFC0
ENDCHAR
STARTCHAR 0161
ENCODING 353
SWIDTH 432 0
DWIDTH 12 0
BBX 10 20 1 0
BITMAP
6180
3300
3F00
1E00
1E00
0000
1FC0
7FC0
FFC0
FFC0
F000
FC00
7F00
3F80
0FC0
03C0
FFC0
FFC0
FFC0
FF00
ENDCHAR
STARTCHAR 0168
ENCODING 360
SWIDTH 612 0
DWIDTH 17 0
BBX 15 26 1 0
BITMAP
0030
0FF0
0FE0
18C0
0000
0000
0000
F83E
F83E
F83E
F83E
F83E
F83E
F83E
F83E
F83E
F83E
F83E
F83E
F83E
7C3E
7EFE
7FFC
3FFC
1FF8
0FE0
ENDCHAR
STARTCHAR 0169
ENCODING 361
SWIDTH 504 0
DWIDTH 14 0
BBX 13 20 1 0
BITMAP
0060
1FC0
1FC0
3180
0000
0000
F0F8
F0F8
F0F8
F0F8
F0F8
F0F8
F0F8
F0F8
F0F8
F8F0
7FF0
7FF0
3FE0
1FC0
ENDCHAR
STARTCHAR 0178
ENCODING 376
SWIDTH 540 0
DWIDTH 15 0
BBX 14 25 1 0
BITMAP
1CE0
1CE0
1CE0
0000
0000
0000
F87C
F87C
F87C
F87C
F87C
F87C
F87C
F8F8
7FF8
7FF8
3FF0
1FE0
0F80
0F80
0F80
0F80
0F80
0F80
0F80
ENDCHAR
STARTCHAR 017D
ENCODING 381
SWIDTH 504 0
DWIDTH 14 0
BBX 14 26 0 0
BITMAP
0C60
0CE0
06C0
07C0
0380
0000
0000
7FFC
7FFC
7FFC
7FFC
00FC
01F8
01F0
03F0
07E0
0FC0
0F80
1F80
3F00
7E00
7FFC
FFFC
FFFC
7FFC
3FFC
ENDCHAR
STARTCHAR 017E
ENCODING 382
SWIDTH 432 0
DWIDTH 12 0
BBX 12 20 0 0
BITMAP
38C0
19C0
1F80
0F80
0700
0000
7FC0
7FF0
7FF0
7FF0
03E0
07E0
0FC0
1F80
3F00
7E00
7FF0
FFF0
7FF0
7FF0
ENDCHAR
STARTCHAR 0192
ENCODING 402
SWIDTH 540 0
DWIDTH 15 0
BBX 15 25 0 -6
BITMAP
00FE
01FE
01FE
01F0
03E0
03E0
03E0
3FFC
3FFC
3FFC
3FFC
07C0
07C0
07C0
07C0
0780
0780
0780
0F80
0F80
0F80
FF00
FF00
FE00
FC00
ENDCHAR
STARTCHAR 01A0
ENCODING 416
SWIDTH 756 0
DWIDTH 21 0
BBX 20 21 1 0
BITMAP
0000F0
01F0F0
07FEE0
1FFFE0
3FFFC0
3FFFC0
7F0FE0
FC07E0
F803E0
F803F0
F801F0
F801F0
F801F0
F803E0
FC03E0
7E07E0
7FFFC0
3FFFC0
1FFF80
0FFF00
03FC00
ENDCHAR
STARTCHAR 01A1
ENCODING 417
SWIDTH 540 0
DWIDTH 15 0
BBX 15 16 1 0
BITMAP
001E
001C
0F9C
3FFC
7FF8
7FF8
FCF8
F878
F07C
F07C
F078
F8F8
FFF8
7FF0
3FE0
0FC0
ENDCHAR
STARTCHAR 01AF
ENCODING 431
SWIDTH 648 0
DWIDTH 18 0
BBX 19 21 1 0
BITMAP
0001E0
0001C0
F83FC0
F83F80
F83F80
F83F00
F83E00
F83E00
F83E00
F83E00
F83E00
F83E00
F83E00
F83E00
F83E00
7C3E00
7EFE00
7FFC00
3FFC00
1FF800
0FE000
ENDCHAR
STARTCHAR 01B0
ENCODING 432
SWIDTH 540 0
DWIDTH 15 0
BBX 16 16 1 0
BITMAP
000F
000F
F0FE
F0FE
F0FC
F0FC
F0F8
F0F8
F0F8
F0F8
F0F8
F8F0
7FF0
7FF0
3FE0
1FC0
ENDCHAR
STARTCHAR 02C6
ENCODING 710
SWIDTH 468 0
DWIDTH 13 0
BBX 8 5 3 15
BITMAP
3C
7E
66
E7
C3
ENDCHAR
STARTCHAR 02C7
ENCODING 711
SWIDTH 468 0
DWIDTH 13 0
BBX 8 5 3 15
BITMAP
C3
66
7E
3C
3C
ENDCHAR
STARTCHAR 02C9
ENCODING 713
SWIDTH 468 0
DWIDTH 13 0
BBX 8 2 3 17
BITMAP
FF
FF
ENDCHAR
STARTCHAR 02D8
ENCODING 728
SWIDTH 468 0
DWIDTH 13 0
BBX 8 4 3 16
BITMAP
83
C3
FE
7E
ENDCHAR
STARTCHAR 02D9
ENCODING 729
SWIDTH 468 0
DWIDTH 13 0
BBX 4 4 5 16
BITMAP
60
F0
F0
60
ENDCHAR
STARTCHAR 02DA
ENCODING 730
SWIDTH 468 0
DWIDTH 13 0
BBX 8 7 3 15
BITMAP
7C
7E
C6
C3
66
7E
18
ENDCHAR
STARTCHAR 02DB
ENCODING 731
SWIDTH 468 0
DWIDTH 13 0
BBX 4 6 5 -6
BITMAP
20
40
C0
C0
F0
F0
ENDCHAR
STARTCHAR 02DC
ENCODING 732
SWIDTH 468 0
DWIDTH 13 0
BBX 8 4 3 16
BITMAP
01
7F
FE
84
ENDCHAR
STARTCHAR 02DD
ENCODING 733
SWIDTH 468 0
DWIDTH 13 0
BBX 9 5 4 16
BITMAP
3B80
7700
6600
6E00
CC00
ENDCHAR
STARTCHAR 0394
ENCODING 916
SWIDTH 684 0
DWIDTH 19 0
BBX 20 20 0 0
BITMAP
01F800
01F800
03FC00
03FC00
03FC00
07FE00
07FE00
079E00
0F9F00
0F9F00
1F0F00
1F0F80
1F0F80
3E07C0
3E07C0
3E07C0
7FFFE0
7FFFE0
7FFFE0
FFFFF0
ENDCHAR
STARTCHAR 03A9
ENCODING 937
SWIDTH 792 0
DWIDTH 22 0
BBX 21 20 1 1
BITMAP
07FE00
0FFF80
1FFFC0
3FFFC0
7F07E0
7E03E0
7C03F0
7C03F0
FC01F0
FC01F0
7C01F0
7C03E0
7C03E0
3E03C0
1E07C0
0F0F80
FF0FF8
FF0FF8
FF0FF8
FF0FF8
ENDCHAR
STARTCHAR 03BC
ENCODING 956
SWIDTH 612 0
DWIDTH 17 0
BBX 18 21 -1 -6
BITMAP
0F07C0
1F07C0
1F07C0
1F07C0
1F0780
1F0F80
1F0F80
3E0F80
3E0F80
3E0F80
3E1F00
3F3F00
3FFF00
3FFF00
7DFF00
7C0000
7C0000
7C0000
7C0000
780000
F80000
ENDCHAR
STARTCHAR 03C0
ENCODING 960
SWIDTH 720 0
DWIDTH 20 0
BBX 21 15 0 0
BITMAP
1FFFF8
3FFFF8
7FFFF0
F7C7C0
F7C7C0
07C7C0
078780
0F8F80
0F8F80
0F8F80
0F8F80
0F8F80
0F0F80
1F1F00
1F1F00
ENDCHAR
STARTCHAR 1EA0
ENCODING 7840
SWIDTH 612 0
DWIDTH 17 0
BBX 15 27 1 -7
BITMAP
03C0
1FF0
3FF8
3FFC
7FFC
7C7E
F83E
F83E
FBFE
FBFE
FBFE
FBFE
FBFE
F83E
F83E
F83E
F83E
F83E
F83E
F83E
0000
0000
03C0
07C0
07C0
07C0
03C0
ENDCHAR
STARTCHAR 1EA1
ENCODING 7841
SWIDTH 540 0
DWIDTH 15 0
BBX 13 21 1 -7
BITMAP
0F80
3FE0
7FF0
FFF8
FDF8
F078
F078
F078
F078
F878
FF78
7F78
3F78
1F78
0000
0000
0780
0F80
0FC0
0F80
0780
ENDCHAR
STARTCHAR 1EA2
ENCODING 7842
SWIDTH 612 0
DWIDTH 17 0
BBX 15 27 1 0
BITMAP
0180
03C0
0660
0060
01C0
0180
0000
03C0
1FF0
3FF8
3FFC
7FFC
7C7E
F83E
F83E
FBFE
FBFE
FBFE
FBFE
FBFE
F83E
F83E
F83E
F83E
F83E
F83E
F83E
ENDCHAR
STARTCHAR 1EA3
ENCODING 7843
SWIDTH 540 0
DWIDTH 15 0
BBX 13 21 1 0
BITMAP
0780
0F80
04C0
0380
0300
0200
0000
0F80
3FE0
7FF0
FFF8
FDF8
F078
F078
F078
F078
F878
FF78
7F78
3F78
1F78
ENDCHAR
STARTCHAR 1EA4
ENCODING 7844
SWIDTH 612 0
DWIDTH 17 0
BBX 15 31 1 0
BITMAP
03C0
0380
0700
0600
0C00
0380
07C0
07C0
0E60
0C60
0000
03C0
1FF0
3FF8
3FFC
7FFC
7C7E
F83E
F83E
FBFE
FBFE
FBFE
FBFE
FBFE
F83E
F83E
F83E
F83E
F83E
F83E
F83E
ENDCHAR
STARTCHAR 1EA5
ENCODING 7845
SWIDTH 540 0
DWIDTH 15 0
BBX 13 26 1 0
BITMAP
0380
0700
0600
0E00
0C00
0000
0780
0F80
0DC0
18C0
1860
0000
0F80
3FE0
7FF0
FFF8
FDF8
F078
F078
F078
F078
F878
FF78
7F78
3F78
1F78
ENDCHAR
STARTCHAR 1EA6
ENCODING 7846
SWIDTH 612 0
DWIDTH 17 0
BBX 15 31 1 0
BITMAP
0380
0380
01C0
00C0
0060
0380
07C0
07C0
0E60
0C60
0000
03C0
1FF0
3FF8
3FFC
7FFC
7C7E
F83E
F83E
FBFE
FBFE
FBFE
FBFE
FBFE
F83E
F83E
F83E
F83E
F83E
F83E
F83E
ENDCHAR
STARTCHAR 1EA7
ENCODING 7847
SWIDTH 540 0
DWIDTH 15 0
BBX 13 26 1 0
BITMAP
0F00
0700
0380
0180
00C0
0000
0780
0F80
0DC0
18C0
1860
0000
0F80
3FE0
7FF0
FFF8
FDF8
F078
F078
F078
F078
F878
FF78
7F78
3F78
1F78
ENDCHAR
STARTCHAR 1EA8
ENCODING 7848
SWIDTH 612 0
DWIDTH 17 0
BBX 15 31 1 0
BITMAP
0038
006C
004C
001C
0018
0390
07C0
07C0
0E60
0C60
0000
03C0
1FF0
3FF8
3FFC
7FFC
7C7E
F83E
F83E
FBFE
FBFE
FBFE
FBFE
FBFE
F83E
F83E
F83E
F83E
F83E
F83E
F83E
ENDCHAR
STARTCHAR 1EA9
ENCODING 7849
SWIDTH 540 0
DWIDTH 15 0
BBX 13 26 1 0
BITMAP
0070
00F8
0098
0018
0038
0020
0780
0F80
0DC0
18C0
1860
0000
0F80
3FE0
7FF0
FFF8
FDF8
F078
F078
F078
F078
F878
FF78
7F78
3F78
1F78
ENDCHAR
STARTCHAR 1EAA
ENCODING 7850
SWIDTH 612 0
DWIDTH 17 0
BBX 15 30 1 0
BITMAP
0318
07F0
0FF0
0C00
0380
07C0
07C0
0E60
0C60
0000
03C0
1FF0
3FF8
3FFC
7FFC
7C7E
F83E
F83E
FBFE
FBFE
FBFE
FBFE
FBFE
F83E
F83E
F83E
F83E
F83E
F83E
F83E
ENDCHAR
STARTCHAR 1EAB
ENCODING 7851
SWIDTH 540 0
DWIDTH 15 0
BBX 13 25 1 0
BITMAP
0030
0FE0
0FE0
1800
0000
0780
0F80
0DC0
18C0
1860
0000
0F80
3FE0
7FF0
FFF8
FDF8
F078
F078
F078
F078
F878
FF78
7F78
3F78
1F78
ENDCHAR
STARTCHAR 1EAC
ENCODING 7852
SWIDTH 612 0
DWIDTH 17 0
BBX 15 33 1 -7
BITMAP
0380
07C0
07C0
0E60
0C60
0000
03C0
1FF0
3FF8
3FFC
7FFC
7C7E
F83E
F83E
FBFE
FBFE
FBFE
FBFE
FBFE
F83E
F83E
F83E
F83E
F83E
F83E
F83E
0000
0000
03C0
07C0
07C0
07C0
03C0
ENDCHAR
STARTCHAR 1EAD
ENCODING 7853
SWIDTH 540 0
DWIDTH 15 0
BBX 13 27 1 -7
BITMAP
0780
0F80
0DC0
18C0
1860
0000
0F80
3FE0
7FF0
FFF8
FDF8
F078
F078
F078
F078
F878
FF78
7F78
3F78
1F78
0000
0000
0780
0F80
0FC0
0F80
0780
ENDCHAR
STARTCHAR 1EAE
ENCODING 7854
SWIDTH 612 0
DWIDTH 17 0
BBX 15 31 1 0
BITMAP
00E0
01C0
01C0
0380
0300
0000
0830
0C70
0FE0
07C0
0000
03C0
1FF0
3FF8
3FFC
7FFC
7C7E
F83E
F83E
FBFE
FBFE
FBFE
FBFE
FBFE
F83E
F83E
F83E
F83E
F83E
F83E
F83E
ENDCHAR
STARTCHAR 1EAF
ENCODING 7855
SWIDTH 540 0
DWIDTH 15 0
BBX 13 26 1 0
BITMAP
01C0
01C0
0380
0700
0600
0000
1060
1860
1FC0
0F80
0000
0000
0F80
3FE0
7FF0
FFF8
FDF8
F078
F078
F078
F078
F878
FF78
7F78
3F78
1F78
ENDCHAR
STARTCHAR 1EB0
ENCODING 7856
SWIDTH 612 0
DWIDTH 17 0
BBX 15 31 1 0
BITMAP
0F00
0700
0380
0180
00C0
0000
0830
0C70
0FE0
07C0
0000
03C0
1FF0
3FF8
3FFC
7FFC
7C7E
F83E
F83E
FBFE
FBFE
FBFE
FBFE
FBFE
F83E
F83E
F83E
F83E
F83E
F83E
F83E
ENDCHAR
STARTCHAR 1EB1
ENCODING 7857
SWIDTH 540 0
DWIDTH 15 0
BBX 13 26 1 0
BITMAP
1E00
0E00
0700
0300
0180
0000
1060
1860
1FC0
0F80
0000
0000
0F80
3FE0
7FF0
FFF8
FDF8
F078
F078
F078
F078
F878
FF78
7F78
3F78
1F78
ENDCHAR
STARTCHAR 1EB2
ENCODING 7858
SWIDTH 612 0
DWIDTH 17 0
BBX 15 31 1 0
BITMAP
03C0
07C0
0260
01C0
0180
0100
0830
0C70
0FE0
07C0
0000
03C0
1FF0
3FF8
3FFC
7FFC
7C7E
F83E
F83E
FBFE
FBFE
FBFE
FBFE
FBFE
F83E
F83E
F83E
F83E
F83E
F83E
F83E
ENDCHAR
STARTCHAR 1EB3
ENCODING 7859
SWIDTH 540 0
DWIDTH 15 0
BBX 13 26 1 0
BITMAP
0700
0F80
0CC0
01C0
0380
0200
1060
1860
1FC0
0F80
0000
0000
0F80
3FE0
7FF0
FFF8
FDF8
F078
F078
F078
F078
F878
FF78
7F78
3F78
1F78
ENDCHAR
STARTCHAR 1EB4
ENCODING 7860
SWIDTH 612 0
DWIDTH 17 0
BBX 15 30 1 0
BITMAP
0230
0FF0
0FE0
0800
0000
0830
0C70
0FE0
07C0
0000
03C0
1FF0
3FF8
3FFC
7FFC
7C7E
F83E
F83E
FBFE
FBFE
FBFE
FBFE
FBFE
F83E
F83E
F83E
F83E
F83E
F83E
F83E
ENDCHAR
STARTCHAR 1EB5
ENCODING 7861
SWIDTH 540 0
DWIDTH 15 0
BBX 13 25 1 0
BITMAP
0020
0FE0
1FC0
1000
0000
1060
1860
1FC0
0F80
0000
0000
0F80
3FE0
7FF0
FFF8
FDF8
F078
F078
F078
F078
F878
FF78
7F78
3F78
1F78
ENDCHAR
STARTCHAR 1EB6
ENCODING 7862
SWIDTH 612 0
DWIDTH 17 0
BBX 15 32 1 -7
BITMAP
0830
0C70
0FE0
07C0
0000
03C0
1FF0
3FF8
3FFC
7FFC
7C7E
F83E
F83E
FBFE
FBFE
FBFE
FBFE
FBFE
F83E
F83E
F83E
F83E
F83E
F83E
F83E
0000
0000
03C0
07C0
07C0
07C0
03C0
ENDCHAR
STARTCHAR 1EB7
ENCODING 7863
SWIDTH 540 0
DWIDTH 15 0
BBX 13 27 1 -7
BITMAP
1060
1860
1FC0
0F80
0000
0000
0F80
3FE0
7FF0
FFF8
FDF8
F078
F078
F078
F078
F878
FF78
7F78
3F78
1F78
0000
0000
0780
0F80
0FC0
0F80
0780
ENDCHAR
STARTCHAR 1EB8
ENCODING 7864
SWIDTH 504 0
DWIDTH 14 0
BBX 12 26 1 -7
BITMAP
03F0
0FF0
1FF0
3FF0
7F00
FC00
F800
FFF0
FFF0
FFF0
FFF0
F800
FC00
7E00
7FF0
3FF0
1FF0
0FF0
01F0
0000
0000
03C0
03E0
07E0
03E0
03C0
ENDCHAR
STARTCHAR 1EB9
ENCODING 7865
SWIDTH 540 0
DWIDTH 15 0
BBX 14 21 1 -7
BITMAP
0F80
3FE0
7FF0
7DF8
F9F8
F3E0
F7C0
F300
F238
F87C
FFF8
7FF8
3FF0
0FC0
0000
0000
0780
0F80
0F80
0F80
0780
ENDCHAR
STARTCHAR 1EBA
ENCODING 7866
SWIDTH 504 0
DWIDTH 14 0
BBX 12 27 1 0
BITMAP
0060
01F0
01B0
0030
0070
0040
0000
0000
03F0
0FF0
1FF0
3FF0
7F00
FC00
F800
FFF0
FFF0
FFF0
FFF0
F800
FC00
7E00
7FF0
3FF0
1FF0
0FF0
01F0
ENDCHAR
STARTCHAR 1EBB
ENCODING 7867
SWIDTH 540 0
DWIDTH 15 0
BBX 14 21 1 0
BITMAP
0780
0F80
04C0
0380
0300
0200
0000
0F80
3FE0
7FF0
7DF8
F9F8
F3E0
F7C0
F300
F238
F87C
FFF8
7FF8
3FF0
0FC0
ENDCHAR
STARTCHAR 1EBC
ENCODING 7868
SWIDTH 504 0
DWIDTH 14 0
BBX 13 26 1 0
BITMAP
0018
07F0
0FF0
0CE0
0000
0000
0000
03F0
0FF0
1FF0
3FF0
7F00
FC00
F800
FFF0
FFF0
FFF0
FFF0
F800
FC00
7E00
7FF0
3FF0
1FF0
0FF0
01F0
ENDCHAR
STARTCHAR 1EBD
ENCODING 7869
SWIDTH 540 0
DWIDTH 15 0
BBX 14 20 1 0
BITMAP
0060
1FC0
1FC0
3180
0000
0000
0F80
3FE0
7FF0
7DF8
F9F8
F3E0
F7C0
F300
F238
F87C
FFF8
7FF8
3FF0
0FC0
ENDCHAR
STARTCHAR 1EBE
ENCODING 7870
SWIDTH 504 0
DWIDTH 14 0
BBX 12 31 1 0
BITMAP
01C0
0380
0380
0700
0600
03C0
03C0
07E0
0660
0C30
0000
0000
03F0
0FF0
1FF0
3FF0
7F00
FC00
F800
FFF0
FFF0
FFF0
FFF0
F800
FC00
7E00
7FF0
3FF0
1FF0
0FF0
01F0
ENDCHAR
STARTCHAR 1EBF
ENCODING 7871
SWIDTH 540 0
DWIDTH 15 0
BBX 14 26 1 0
BITMAP
0380
0700
0600
0E00
0C00
0000
0780
0F80
0DC0
18C0
1860
0000
0F80
3FE0
7FF0
7DF8
F9F8
F3E0
F7C0
F300
F238
F87C
FFF8
7FF8
3FF0
0FC0
ENDCHAR
STARTCHAR 1EC0
ENCODING 7872
SWIDTH 504 0
DWIDTH 14 0
BBX 12 31 1 0
BITMAP
0380
01C0
00C0
0060
0060
03C0
03C0
07E0
0660
0C30
0000
0000
03F0
0FF0
1FF0
3FF0
7F00
FC00
F800
FFF0
FFF0
FFF0
FFF0
F800
FC00
7E00
7FF0
3FF0
1FF0
0FF0
01F0
ENDCHAR
STARTCHAR 1EC1
ENCODING 7873
SWIDTH 540 0
DWIDTH 15 0
BBX 14 26 1 0
BITMAP
0F00
0700
0380
0180
00C0
0000
0780
0F80
0DC0
18C0
1860
0000
0F80
3FE0
7FF0
7DF8
F9F8
F3E0
F7C0
F300
F238
F87C
FFF8
7FF8
3FF0
0FC0
ENDCHAR
STARTCHAR 1EC2
ENCODING 7874
SWIDTH 504 0
DWIDTH 14 0
BBX 15 31 1 0
BITMAP
003C
007C
0026
001C
001C
03D0
03C0
07E0
0660
0C30
0000
0000
03F0
0FF0
1FF0
3FF0
7F00
FC00
F800
FFF0
FFF0
FFF0
FFF0
F800
FC00
7E00
7FF0
3FF0
1FF0
0FF0
01F0
ENDCHAR
STARTCHAR 1EC3
ENCODING 7875
SWIDTH 540 0
DWIDTH 15 0
BBX 14 26 1 0
BITMAP
0070
00F8
0098
0018
0030
0020
0780
0F80
0DC0
18C0
1860
0000
0F80
3FE0
7FF0
7DF8
F9F8
F3E0
F7C0
F300
F238
F87C
FFF8
7FF8
3FF0
0FC0
ENDCHAR
STARTCHAR 1EC4
ENCODING 7876
SWIDTH 504 0
DWIDTH 14 0
BBX 13 30 1 0
BITMAP
0118
07F8
07F0
0400
03C0
03C0
07E0
0660
0C30
0000
0000
03F0
0FF0
1FF0
3FF0
7F00
FC00
F800
FFF0
FFF0
FFF0
FFF0
F800
FC00
7E00
7FF0
3FF0
1FF0
0FF0
01F0
ENDCHAR
STARTCHAR 1EC5
ENCODING 7877
SWIDTH 540 0
DWIDTH 15 0
BBX 14 25 1 0
BITMAP
0030
0FE0
0FE0
1800
0000
0780
0F80
0DC0
18C0
1860
0000
0F80
3FE0
7FF0
7DF8
F9F8
F3E0
F7C0
F300
F238
F87C
FFF8
7FF8
3FF0
0FC0
ENDCHAR
STARTCHAR 1EC6
ENCODING 7878
SWIDTH 504 0
DWIDTH 14 0
BBX 12 33 1 -7
BITMAP
03C0
03C0
07E0
0660
0C30
0000
0000
03F0
0FF0
1FF0
3FF0
7F00
FC00
F800
FFF0
FFF0
FFF0
FFF0
F800
FC00
7E00
7FF0
3FF0
1FF0
0FF0
01F0
0000
0000
03C0
03E0
07E0
03E0
03C0
ENDCHAR
STARTCHAR 1EC7
ENCODING 7879
SWIDTH 540 0
DWIDTH 15 0
BBX 14 27 1 -7
BITMAP
0780
0F80
0DC0
18C0
1860
0000
0F80
3FE0
7FF0
7DF8
F9F8
F3E0
F7C0
F300
F238
F87C
FFF8
7FF8
3FF0
0FC0
0000
0000
0780
0F80
0F80
0F80
0780
ENDCHAR
STARTCHAR 1EC8
ENCODING 7880
SWIDTH 252 0
DWIDTH 7 0
BBX 6 27 1 0
BITMAP
30
78
CC
0C
38
30
00
00
F8
F8
F8
F8
F8
F8
F8
F8
F8
F8
F8
F8
F8
F8
F8
F8
F8
F8
F8
ENDCHAR
STARTCHAR 1EC9
ENCODING 7881
SWIDTH 216 0
DWIDTH 6 0
BBX 5 21 1 0
BITMAP
78
D8
48
38
30
20
00
F8
F8
F8
F8
F8
F8
F8
F8
F8
F8
F8
F8
F8
F8
ENDCHAR
STARTCHAR 1ECA
ENCODING 7882
SWIDTH 252 0
DWIDTH 7 0
BBX 6 26 1 -7
BITMAP
F8
F8
F8
F8
F8
F8
F8
F8
F8
F8
F8
F8
F8
F8
F8
F8
F8
F8
F8
00
00
78
FC
FC
FC
78
ENDCHAR
STARTCHAR 1ECB
ENCODING 7883
SWIDTH 216 0
DWIDTH 6 0
BBX 5 27 1 -7
BITMAP
70
F8
F8
F8
70
00
F8
F8
F8
F8
F8
F8
F8
F8
F8
F8
F8
F8
F8
F8
00
00
70
F8
F8
F8
F0
ENDCHAR
STARTCHAR 1ECC
ENCODING 7884
SWIDTH 756 0
DWIDTH 21 0
BBX 20 27 1 -7
BITMAP
01F000
07FE00
1FFF00
3FFF80
3FFFC0
7F0FE0
FC07E0
F803E0
F803F0
F801F0
F801F0
F801F0
F803E0
FC03E0
7E07E0
7FFFC0
3FFFC0
1FFF80
0FFF00
03FC00
000000
000000
00F000
01F000
01F000
01F000
00F000
ENDCHAR
STARTCHAR 1ECD
ENCODING 7885
SWIDTH 540 0
DWIDTH 15 0
BBX 14 21 1 -7
BITMAP
0F80
3FE0
7FF0
7FF8
FCF8
F878
F07C
F07C
F078
F8F8
FFF8
7FF0
3FE0
0FC0
0000
0000
0780
0F80
0F80
0F80
0780
ENDCHAR
STARTCHAR 1ECE
ENCODING 7886
SWIDTH 756 0
DWIDTH 21 0
BBX 20 27 1 0
BITMAP
006000
00F000
019800
001800
007000
006000
000000
01F000
07FE00
1FFF00
3FFF80
3FFFC0
7F0FE0
FC07E0
F803E0
F803F0
F801F0
F801F0
F801F0
F803E0
FC03E0
7E07E0
7FFFC0
3FFFC0
1FFF80
0FFF00
03FC00
ENDCHAR
STARTCHAR 1ECF
ENCODING 7887
SWIDTH 540 0
DWIDTH 15 0
BBX 14 21 1 0
BITMAP
0780
0F80
04C0
0380
0300
0200
0000
0F80
3FE0
7FF0
7FF8
FCF8
F878
F07C
F07C
F078
F8F8
FFF8
7FF0
3FE0
0FC0
ENDCHAR
STARTCHAR 1ED0
ENCODING 7888
SWIDTH 756 0
DWIDTH 21 0
BBX 20 31 1 0
BITMAP
007000
00E000
01C000
018000
030000
00E000
00F000
01F000
039800
031C00
000000
01F000
07FE00
1FFF00
3FFF80
3FFFC0
7F0FE0
FC07E0
F803E0
F803F0
F801F0
F801F0
F801F0
F803E0
FC03E0
7E07E0
7FFFC0
3FFFC0
1FFF80
0FFF00
03FC00
ENDCHAR
STARTCHAR 1ED1
ENCODING 7889
SWIDTH 540 0
DWIDTH 15 0
BBX 14 26 1 0
BITMAP
0380
0700
0600
0C00
1C00
0000
0780
0F80
0DC0
18C0
3060
0000
0F80
3FE0
7FF0
7FF8
FCF8
F878
F07C
F07C
F078
F8F8
FFF8
7FF0
3FE0
0FC0
ENDCHAR
STARTCHAR 1ED2
ENCODING 7890
SWIDTH 756 0
DWIDTH 21 0
BBX 20 31 1 0
BITMAP
00E000
00E000
007000
003800
001800
00E000
00F000
01F000
039800
031C00
000000
01F000
07FE00
1FFF00
3FFF80
3FFFC0
7F0FE0
FC07E0
F803E0
F803F0
F801F0
F801F0
F801F0
F803E0
FC03E0
7E07E0
7FFFC0
3FFFC0
1FFF80
0FFF00
03FC00
ENDCHAR
STARTCHAR 1ED3
ENCODING 7891
SWIDTH 540 0
DWIDTH 15 0
BBX 14 26 1 0
BITMAP
0F00
0700
0380
0180
00C0
0000
0780
0F80
0DC0
18C0
3060
0000
0F80
3FE0
7FF0
7FF8
FCF8
F878
F07C
F07C
F078
F8F8
FFF8
7FF0
3FE0
0FC0
ENDCHAR
STARTCHAR 1ED4
ENCODING 7892
SWIDTH 756 0
DWIDTH 21 0
BBX 20 31 1 0
BITMAP
000E00
001B00
001300
000700
000600
00E400
00F000
01F000
039800
031C00
000000
01F000
07FE00
1FFF00
3FFF80
3FFFC0
7F0FE0
FC07E0
F803E0
F803F0
F801F0
F801F0
F801F0
F803E0
FC03E0
7E07E0
7FFFC0
3FFFC0
1FFF80
0FFF00
03FC00
ENDCHAR
STARTCHAR 1ED5
ENCODING 7893
SWIDTH 540 0
DWIDTH 15 0
BBX 14 26 1 0
BITMAP
0070
00F8
0098
0018
0030
0020
0780
0F80
0DC0
18C0
3060
0000
0F80
3FE0
7FF0
7FF8
FCF8
F878
F07C
F07C
F078
F8F8
FFF8
7FF0
3FE0
0FC0
ENDCHAR
STARTCHAR 1ED6
ENCODING 7894
SWIDTH 756 0
DWIDTH 21 0
BBX 20 30 1 0
BITMAP
00C600
01FC00
03FC00
030000
00E000
00F000
01F000
039800
031C00
000000
01F000
07FE00
1FFF00
3FFF80
3FFFC0
7F0FE0
FC07E0
F803E0
F803F0
F801F0
F801F0
F801F0
F803E0
FC03E0
7E07E0
7FFFC0
3FFFC0
1FFF80
0FFF00
03FC00
ENDCHAR
STARTCHAR 1ED7
ENCODING 7895
SWIDTH 540 0
DWIDTH 15 0
BBX 14 25 1 0
BITMAP
0030
0FE0
0FE0
1800
0000
0780
0F80
0DC0
18C0
3060
0000
0F80
3FE0
7FF0
7FF8
FCF8
F878
F07C
F07C
F078
F8F8
FFF8
7FF0
3FE0
0FC0
ENDCHAR
STARTCHAR 1ED8
ENCODING 7896
SWIDTH 756 0
DWIDTH 21 0
BBX 20 33 1 -7
BITMAP
00E000
00F000
01F000
039800
031C00
000000
01F000
07FE00
1FFF00
3FFF80
3FFFC0
7F0FE0
FC07E0
F803E0
F803F0
F801F0
F801F0
F801F0
F803E0
FC03E0
7E07E0
7FFFC0
3FFFC0
1FFF80
0FFF00
03FC00
000000
000000
00F000
01F000
01F000
01F000
00F000
ENDCHAR
STARTCHAR 1ED9
ENCODING 7897
SWIDTH 540 0
DWIDTH 15 0
BBX 14 27 1 -7
BITMAP
0780
0F80
0DC0
18C0
3060
0000
0F80
3FE0
7FF0
7FF8
FCF8
F878
F07C
F07C
F078
F8F8
FFF8
7FF0
3FE0
0FC0
0000
0000
0780
0F80
0F80
0F80
0780
ENDCHAR
STARTCHAR 1EDA
ENCODING 7898
SWIDTH 756 0
DWIDTH 21 0
BBX 20 26 1 0
BITMAP
003800
007000
006000
00E000
00C000
0000F0
01F0F0
07FEE0
1FFFE0
3FFFC0
3FFFC0
7F0FE0
FC07E0
F803E0
F803F0
F801F0
F801F0
F801F0
F803E0
FC03E0
7E07E0
7FFFC0
3FFFC0
1FFF80
0FFF00
03FC00
ENDCHAR
STARTCHAR 1EDB
ENCODING 7899
SWIDTH 540 0
DWIDTH 15 0
BBX 15 20 1 0
BITMAP
01C0
0380
0300
0600
061E
001C
0F9C
3FFC
7FF8
7FF8
FCF8
F878
F07C
F07C
F078
F8F8
FFF8
7FF0
3FE0
0FC0
ENDCHAR
STARTCHAR 1EDC
ENCODING 7900
SWIDTH 756 0
DWIDTH 21 0
BBX 20 26 1 0
BITMAP
03C000
01C000
00E000
006000
003000
0000F0
01F0F0
07FEE0
1FFFE0
3FFFC0
3FFFC0
7F0FE0
FC07E0
F803E0
F803F0
F801F0
F801F0
F801F0
F803E0
FC03E0
7E07E0
7FFFC0
3FFFC0
1FFF80
0FFF00
03FC00
ENDCHAR
STARTCHAR 1EDD
ENCODING 7901
SWIDTH 540 0
DWIDTH 15 0
BBX 15 20 1 0
BITMAP
1E00
0E00
0700
0300
019E
001C
0F9C
3FFC
7FF8
7FF8
FCF8
F878
F07C
F07C
F078
F8F8
FFF8
7FF0
3FE0
0FC0
ENDCHAR
STARTCHAR 1EDE
ENCODING 7902
SWIDTH 756 0
DWIDTH 21 0
BBX 20 27 1 0
BITMAP
006000
00F000
019800
001800
007000
006000
0000F0
01F0F0
07FEE0
1FFFE0
3FFFC0
3FFFC0
7F0FE0
FC07E0
F803E0
F803F0
F801F0
F801F0
F801F0
F803E0
FC03E0
7E07E0
7FFFC0
3FFFC0
1FFF80
0FFF00
03FC00
ENDCHAR
STARTCHAR 1EDF
ENCODING 7903
SWIDTH 540 0
DWIDTH 15 0
BBX 15 21 1 0
BITMAP
0780
0F80
04C0
0380
0300
021E
001C
0F9C
3FFC
7FF8
7FF8
FCF8
F878
F07C
F07C
F078
F8F8
FFF8
7FF0
3FE0
0FC0
ENDCHAR
STARTCHAR 1EE0
ENCODING 7904
SWIDTH 756 0
DWIDTH 21 0
BBX 20 26 1 0
BITMAP
000400
01EC00
03F800
023000
000000
0000F0
01F0F0
07FEE0
1FFFE0
3FFFC0
3FFFC0
7F0FE0
FC07E0
F803E0
F803F0
F801F0
F801F0
F801F0
F803E0
FC03E0
7E07E0
7FFFC0
3FFFC0
1FFF80
0FFF00
03FC00
ENDCHAR
STARTCHAR 1EE1
ENCODING 7905
SWIDTH 540 0
DWIDTH 15 0
BBX 15 20 1 0
BITMAP
0060
0FE0
1FC0
3180
001E
001C
0F9C
3FFC
7FF8
7FF8
FCF8
F878
F07C
F07C
F078
F8F8
FFF8
7FF0
3FE0
0FC0
ENDCHAR
STARTCHAR 1EE2
ENCODING 7906
SWIDTH 756 0
DWIDTH 21 0
BBX 20 28 1 -7
BITMAP
0000F0
01F0F0
07FEE0
1FFFE0
3FFFC0
3FFFC0
7F0FE0
FC07E0
F803E0
F803F0
F801F0
F801F0
F801F0
F803E0
FC03E0
7E07E0
7FFFC0
3FFFC0
1FFF80
0FFF00
03FC00
000000
000000
00F000
01F000
01F000
01F000
00F000
ENDCHAR
STARTCHAR 1EE3
ENCODING 7907
SWIDTH 540 0
DWIDTH 15 0
BBX 15 23 1 -7
BITMAP
001E
001C
0F9C
3FFC
7FF8
7FF8
FCF8
F878
F07C
F07C
F078
F8F8
FFF8
7FF0
3FE0
0FC0
0000
0000
0780
0F80
0F80
0F80
0780
ENDCHAR
STARTCHAR 1EE4
ENCODING 7908
SWIDTH 612 0
DWIDTH 17 0
BBX 15 26 1 -7
BITMAP
F83E
F83E
F83E
F83E
F83E
F83E
F83E
F83E
F83E
F83E
F83E
F83E
F83E
7C3E
7EFE
7FFC
3FFC
1FF8
0FE0
0000
0000
03C0
07C0
07C0
07C0
03C0
ENDCHAR
STARTCHAR 1EE5
ENCODING 7909
SWIDTH 504 0
DWIDTH 14 0
BBX 13 21 1 -7
BITMAP
F0F8
F0F8
F0F8
F0F8
F0F8
F0F8
F0F8
F0F8
F0F8
F8F0
7FF0
7FF0
3FE0
1FC0
0000
0000
0700
0F80
0F80
0F80
0F00
ENDCHAR
STARTCHAR 1EE6
ENCODING 7910
SWIDTH 612 0
DWIDTH 17 0
BBX 15 27 1 0
BITMAP
0180
03C0
0660
0060
01C0
0180
0000
0000
F83E
F83E
F83E
F83E
F83E
F83E
F83E
F83E
F83E
F83E
F83E
F83E
F83E
7C3E
7EFE
7FFC
3FFC
1FF8
0FE0
ENDCHAR
STARTCHAR 1EE7
ENCODING 7911
SWIDTH 504 0
DWIDTH 14 0
BBX 13 21 1 0
BITMAP
0700
0D80
0180
0380
0300
0200
0000
F0F8
F0F8
F0F8
F0F8
F0F8
F0F8
F0F8
F0F8
F0F8
F8F0
7FF0
7FF0
3FE0
1FC0
ENDCHAR
STARTCHAR 1EE8
ENCODING 7912
SWIDTH 648 0
DWIDTH 18 0
BBX 19 26 1 0
BITMAP
00E000
01C000
018000
038000
030000
0001E0
0001C0
F83FC0
F83F80
F83F80
F83F00
F83E00
F83E00
F83E00
F83E00
F83E00
F83E00
F83E00
F83E00
F83E00
7C3E00
7EFE00
7FFC00
3FFC00
1FF800
0FE000
ENDCHAR
STARTCHAR 1EE9
ENCODING 7913
SWIDTH 540 0
DWIDTH 15 0
BBX 16 20 1 0
BITMAP
03C0
0380
0700
0600
0C0F
000F
F0FE
F0FE
F0FC
F0FC
F0F8
F0F8
F0F8
F0F8
F0F8
F8F0
7FF0
7FF0
3FE0
1FC0
ENDCHAR
STARTCHAR 1EEA
ENCODING 7914
SWIDTH 648 0
DWIDTH 18 0
BBX 19 26 1 0
BITMAP
0F0000
070000
038000
018000
00C000
0001E0
0001C0
F83FC0
F83F80
F83F80
F83F00
F83E00
F83E00
F83E00
F83E00
F83E00
F83E00
F83E00
F83E00
F83E00
7C3E00
7EFE00
7FFC00
3FFC00
1FF800
0FE000
ENDCHAR
STARTCHAR 1EEB
ENCODING 7915
SWIDTH 540 0
DWIDTH 15 0
BBX 16 20 1 0
BITMAP
1C00
0E00
0600
0300
018F
000F
F0FE
F0FE
F0FC
F0FC
F0F8
F0F8
F0F8
F0F8
F0F8
F8F0
7FF0
7FF0
3FE0
1FC0
ENDCHAR
STARTCHAR 1EEC
ENCODING 7916
SWIDTH 648 0
DWIDTH 18 0
BBX 19 27 1 0
BITMAP
018000
03C000
066000
006000
01C000
018000
0001E0
0001C0
F83FC0
F83F80
F83F80
F83F00
F83E00
F83E00
F83E00
F83E00
F83E00
F83E00
F83E00
F83E00
F83E00
7C3E00
7EFE00
7FFC00
3FFC00
1FF800
0FE000
ENDCHAR
STARTCHAR 1EED
ENCODING 7917
SWIDTH 540 0
DWIDTH 15 0
BBX 16 21 1 0
BITMAP
0700
0D80
0180
0380
0300
020F
000F
F0FE
F0FE
F0FC
F0FC
F0F8
F0F8
F0F8
F0F8
F0F8
F8F0
7FF0
7FF0
3FE0
1FC0
ENDCHAR
STARTCHAR 1EEE
ENCODING 7918
SWIDTH 648 0
DWIDTH 18 0
BBX 19 26 1 0
BITMAP
003000
0FF000
0FE000
18C000
000000
0001E0
0001C0
F83FC0
F83F80
F83F80
F83F00
F83E00
F83E00
F83E00
F83E00
F83E00
F83E00
F83E00
F83E00
F83E00
7C3E00
7EFE00
7FFC00
3FFC00
1FF800
0FE000
ENDCHAR
STARTCHAR 1EEF
ENCODING 7919
SWIDTH 540 0
DWIDTH 15 0
BBX 16 20 1 0
BITMAP
0060
1FC0
1FC0
3180
000F
000F
F0FE
F0FE
F0FC
F0FC
F0F8
F0F8
F0F8
F0F8
F0F8
F8F0
7FF0
7FF0
3FE0
1FC0
ENDCHAR
STARTCHAR 1EF0
ENCODING 7920
SWIDTH 648 0
DWIDTH 18 0
BBX 19 28 1 -7
BITMAP
0001E0
0001C0
F83FC0
F83F80
F83F80
F83F00
F83E00
F83E00
F83E00
F83E00
F83E00
F83E00
F83E00
F83E00
F83E00
7C3E00
7EFE00
7FFC00
3FFC00
1FF800
0FE000
000000
000000
03C000
07C000
07C000
07C000
03C000
ENDCHAR
STARTCHAR 1EF1
ENCODING 7921
SWIDTH 540 0
DWIDTH 15 0
BBX 16 23 1 -7
BITMAP
000F
000F
F0FE
F0FE
F0FC
F0FC
F0F8
F0F8
F0F8
F0F8
F0F8
F8F0
7FF0
7FF0
3FE0
1FC0
0000
0000
0700
0F80
0F80
0F80
0F00
ENDCHAR
STARTCHAR 1EF2
ENCODING 7922
SWIDTH 540 0
DWIDTH 15 0
BBX 14 26 1 0
BITMAP
1E00
0E00
0700
0300
0180
0000
0000
F87C
F87C
F87C
F87C
F87C
F87C
F87C
F8F8
7FF8
7FF8
3FF0
1FE0
0F80
0F80
0F80
0F80
0F80
0F80
0F80
ENDCHAR
STARTCHAR 1EF3
ENCODING 7923
SWIDTH 504 0
DWIDTH 14 0
BBX 13 26 1 -6
BITMAP
1C00
0E00
0600
0300
0180
0000
F0F8
F0F8
F0F8
F0F8
F0F8
F0F8
F0F8
F0F8
F0F8
F8F8
7FF0
7FF0
3FE0
1FC0
0F80
0F80
0F80
0F80
0F80
0F80
ENDCHAR
STARTCHAR 1EF4
ENCODING 7924
SWIDTH 540 0
DWIDTH 15 0
BBX 14 26 1 -7
BITMAP
F87C
F87C
F87C
F87C
F87C
F87C
F87C
F8F8
7FF8
7FF8
3FF0
1FE0
0F80
0F80
0F80
0F80
0F80
0F80
0F80
0000
0000
0780
0FC0
0FC0
0FC0
0780
ENDCHAR
STARTCHAR 1EF5
ENCODING 7925
SWIDTH 504 0
DWIDTH 14 0
BBX 13 21 1 -7
BITMAP
F0F8
F0F8
F0F8
F0F8
F0F8
F0F8
F0F8
F0F8
F0F8
F8F8
7FF0
7FF0
3FE0
1FC0
0F80
0F80
0FF8
0FF8
0FF8
0FF8
0078
ENDCHAR
STARTCHAR 1EF6
ENCODING 7926
SWIDTH 540 0
DWIDTH 15 0
BBX 14 27 1 0
BITMAP
0300
0780
0CC0
00C0
0380
0300
0000
0000
F87C
F87C
F87C
F87C
F87C
F87C
F87C
F8F8
7FF8
7FF8
3FF0
1FE0
0F80
0F80
0F80
0F80
0F80
0F80
0F80
ENDCHAR
STARTCHAR 1EF7
ENCODING 7927
SWIDTH 504 0
DWIDTH 14 0
BBX 13 27 1 -6
BITMAP
0700
0D80
0180
0380
0300
0200
0000
F0F8
F0F8
F0F8
F0F8
F0F8
F0F8
F0F8
F0F8
F0F8
F8F8
7FF0
7FF0
3FE0
1FC0
0F80
0F80
0F80
0F80
0F80
0F80
ENDCHAR
STARTCHAR 1EF8
ENCODING 7928
SWIDTH 540 0
DWIDTH 15 0
BBX 14 26 1 0
BITMAP
0020
0F60
1FC0
1180
0000
0000
0000
F87C
F87C
F87C
F87C
F87C
F87C
F87C
F8F8
7FF8
7FF8
3FF0
1FE0
0F80
0F80
0F80
0F80
0F80
0F80
0F80
ENDCHAR
STARTCHAR 1EF9
ENCODING 7929
SWIDTH 504 0
DWIDTH 14 0
BBX 13 26 1 -6
BITMAP
0060
1FC0
1FC0
3180
0000
0000
F0F8
F0F8
F0F8
F0F8
F0F8
F0F8
F0F8
F0F8
F0F8
F8F8
7FF0
7FF0
3FE0
1FC0
0F80
0F80
0F80
0F80
0F80
0F80
ENDCHAR
STARTCHAR 2010
ENCODING 8208
SWIDTH 324 0
DWIDTH 9 0
BBX 7 4 1 5
BITMAP
FE
FE
FE
FE
ENDCHAR
STARTCHAR 2013
ENCODING 8211
SWIDTH 468 0
DWIDTH 13 0
BBX 14 3 0 5
BITMAP
FFFC
FFFC
FFFC
ENDCHAR
STARTCHAR 2014
ENCODING 8212
SWIDTH 972 0
DWIDTH 27 0
BBX 28 3 0 5
BITMAP
FFFFFFF0
FFFFFFF0
FFFFFFF0
ENDCHAR
STARTCHAR 2018
ENCODING 8216
SWIDTH 252 0
DWIDTH 7 0
BBX 4 6 2 13
BITMAP
70
70
70
F0
F0
E0
ENDCHAR
STARTCHAR 2019
ENCODING 8217
SWIDTH 252 0
DWIDTH 7 0
BBX 4 6 2 13
BITMAP
70
70
F0
F0
E0
E0
ENDCHAR
STARTCHAR 201A
ENCODING 8218
SWIDTH 252 0
DWIDTH 7 0
BBX 4 6 2 -3
BITMAP
F0
F0
F0
E0
E0
E0
ENDCHAR
STARTCHAR 201C
ENCODING 8220
SWIDTH 468 0
DWIDTH 13 0
BBX 10 6 2 13
BITMAP
71C0
73C0
73C0
F380
F380
E780
ENDCHAR
STARTCHAR 201D
ENCODING 8221
SWIDTH 468 0
DWIDTH 13 0
BBX 10 6 2 13
BITMAP
73C0
73C0
F380
F380
E380
E380
ENDCHAR
STARTCHAR 201E
ENCODING 8222
SWIDTH 468 0
DWIDTH 13 0
BBX 10 6 2 -3
BITMAP
F3C0
F380
F380
E380
E380
E700
ENDCHAR
STARTCHAR 2020
ENCODING 8224
SWIDTH 468 0
DWIDTH 13 0
BBX 12 20 1 -1
BITMAP
0F00
0F00
0F00
0F00
FFF0
FFF0
FFF0
0F00
0F00
0F00
0F00
0F00
0F00
0F00
0F00
0F00
0F00
0F00
0F00
0F00
ENDCHAR
STARTCHAR 2021
ENCODING 8225
SWIDTH 468 0
DWIDTH 13 0
BBX 12 20 1 -1
BITMAP
0F00
0F00
0F00
0F00
FFF0
FFF0
FFF0
0F00
0F00
0F00
0F00
FFF0
FFF0
FFF0
FFF0
0F00
0F00
0F00
0F00
0F00
ENDCHAR
STARTCHAR 2022
ENCODING 8226
SWIDTH 576 0
DWIDTH 16 0
BBX 8 8 4 6
BITMAP
3E
7F
FF
FF
FF
7F
7E
18
ENDCHAR
STARTCHAR 2026
ENCODING 8230
SWIDTH 972 0
DWIDTH 27 0
BBX 24 5 2 0
BITMAP
703C1E
F87C1F
F87E3F
F87E1F
783C1E
ENDCHAR
STARTCHAR 2030
ENCODING 8240
SWIDTH 1260 0
DWIDTH 35 0
BBX 33 19 1 0
BITMAP
3F01C00000
7F81800000
FFC3800000
E1C7000000
E1C7000000
E1CE000000
FFDC000000
7F9C000000
3F38000000
0031F03E00
0073F87F00
00E7FCFF80
00E71CE380
01CE1DC380
038E1DC380
03871CE380
0707FCFF80
0603F87F00
0E01F03E00
ENDCHAR
STARTCHAR 2039
ENCODING 8249
SWIDTH 324 0
DWIDTH 9 0
BBX 6 9 2 2
BITMAP
3C
38
70
E0
E0
70
78
38
1C
ENDCHAR
STARTCHAR 203A
ENCODING 8250
SWIDTH 324 0
DWIDTH 9 0
BBX 7 9 1 2
BITMAP
70
38
1C
1C
1E
1C
38
70
E0
ENDCHAR
STARTCHAR 2044
ENCODING 8260
SWIDTH 144 0
DWIDTH 4 0
BBX 13 19 -4 0
BITMAP
0038
0070
0070
00E0
00C0
01C0
0180
0380
0700
0700
0E00
0C00
1C00
1800
3800
7000
7000
E000
C000
ENDCHAR
STARTCHAR 20A3
ENCODING 8355
SWIDTH 792 0
DWIDTH 22 0
BBX 22 19 1 0
BITMAP
1FE000
3FE000
7FE000
7FE000
FC0000
F8078C
F807BC
FFE7FC
FFE7FC
FFE7F8
FFE7C0
FFE7C0
F80780
F80780
F80780
F80780
F80780
F80780
F80780
ENDCHAR
STARTCHAR 20AB
ENCODING 8363
SWIDTH 396 0
DWIDTH 11 0
BBX 11 18 1 2
BITMAP
01C0
0FE0
0FE0
01C0
1DC0
7DC0
FDC0
FDC0
E1C0
E1C0
E3C0
F780
FF80
7F00
1C00
0000
0000
7F80
ENDCHAR
STARTCHAR 2122
ENCODING 8482
SWIDTH 828 0
DWIDTH 23 0
BBX 17 8 3 12
BITMAP
FCE380
FCE780
30F780
30F580
30DD80
30DD80
30C980
30C980
ENDCHAR
STARTCHAR 2126
ENCODING 8486
SWIDTH 792 0
DWIDTH 22 0
BBX 21 20 1 1
BITMAP
07FE00
0FFF80
1FFFC0
3FFFC0
7F07E0
7E03E0
7C03F0
7C03F0
FC01F0
FC01F0
7C01F0
7C03E0
7C03E0
3E03C0
1E07C0
0F0F80
FF0FF8
FF0FF8
FF0FF8
FF0FF8
ENDCHAR
STARTCHAR 2202
ENCODING 8706
SWIDTH 540 0
DWIDTH 15 0
BBX 13 18 1 0
BITMAP
0FC0
1F70
1E30
0838
0038
0038
0638
3F38
78F8
F0F8
F0F8
F0F8
F0F8
F0F0
F0F0
F0E0
71C0
3F80
ENDCHAR
STARTCHAR 2206
ENCODING 8710
SWIDTH 684 0
DWIDTH 19 0
BBX 20 20 0 0
BITMAP
01F800
01F800
03FC00
03FC00
03FC00
07FE00
07FE00
079E00
0F9F00
0F9F00
1F0F00
1F0F80
1F0F80
3E07C0
3E07C0
3E07C0
7FFFE0
7FFFE0
7FFFE0
FFFFF0
ENDCHAR
STARTCHAR 220F
ENCODING 8719
SWIDTH 792 0
DWIDTH 22 0
BBX 18 25 2 -5
BITMAP
FFFFC0
FFFFC0
FFFFC0
FFFFC0
FFFFC0
F807C0
F807C0
F807C0
F807C0
F807C0
F807C0
F807C0
F807C0
F807C0
F807C0
F807C0
F807C0
F807C0
F807C0
F807C0
F807C0
F807C0
F807C0
F807C0
F807C0
ENDCHAR
STARTCHAR 2211
ENCODING 8721
SWIDTH 720 0
DWIDTH 20 0
BBX 19 25 1 -5
BITMAP
FFFFC0
FFFFC0
FFFFC0
FFFFC0
7E0000
3F0000
1F8000
0FC000
07E000
03F000
01F800
00FC00
007E00
00FC00
01F800
03F000
07E000
0FC000
0F8000
1F0000
3E0000
7FFFE0
FFFFE0
FFFFE0
FFFFE0
ENDCHAR
STARTCHAR 2212
ENCODING 8722
SWIDTH 828 0
DWIDTH 23 0
BBX 17 3 3 7
BITMAP
FFFF80
FFFF80
FFFF80
ENDCHAR
STARTCHAR 2219
ENCODING 8729
SWIDTH 252 0
DWIDTH 7 0
BBX 6 6 1 7
BITMAP
30
78
FC
FC
78
30
ENDCHAR
STARTCHAR 221A
ENCODING 8730
SWIDTH 648 0
DWIDTH 18 0
BBX 18 24 1 -1
BITMAP
0003C0
0003C0
000300
000700
000600
000600
000E00
000C00
001C00
001800
381800
FC3800
9C3000
1C3000
1E7000
0E6000
0EE000
0FE000
07C000
07C000
038000
038000
038000
010000
ENDCHAR
STARTCHAR 221E
ENCODING 8734
SWIDTH 828 0
DWIDTH 23 0
BBX 18 11 3 3
BITMAP
3C1E00
7E3F00
FF7F80
E7FB80
C1E080
81C0C0
83C0C0
C7E180
FF7F80
7F3F80
3E1F00
ENDCHAR
STARTCHAR 222B
ENCODING 8747
SWIDTH 576 0
DWIDTH 16 0
BBX 15 26 1 -5
BITMAP
003C
00FE
00CE
01CE
01C0
03C0
03C0
03C0
03C0
0380
0380
0380
0380
0380
0380
0380
0780
0780
0780
0780
0700
0700
E700
E600
FC00
7800
ENDCHAR
STARTCHAR 2248
ENCODING 8776
SWIDTH 828 0
DWIDTH 23 0
BBX 19 11 2 2
BITMAP
0F0020
7FE0E0
FFFFE0
FBFFE0
C03F80
800000
0F0020
7FF0E0
FFFFE0
F9FFC0
C01F80
ENDCHAR
STARTCHAR 2260
ENCODING 8800
SWIDTH 828 0
DWIDTH 23 0
BBX 17 17 3 0
BITMAP
000400
000E00
001E00
003C00
FFFF80
FFFF80
FFFF80
00E000
01E000
03C000
FFFF80
FFFF80
FFFF80
1E0000
3C0000
380000
180000
ENDCHAR
STARTCHAR 2264
ENCODING 8804
SWIDTH 828 0
DWIDTH 23 0
BBX 17 17 3 0
BITMAP
000180
000F80
007F80
07FF00
3FF000
FF8000
FC0000
FFC000
1FF800
03FF00
007F80
000F80
000180
000000
FFFF80
FFFF80
FFFF80
ENDCHAR
STARTCHAR 2265
ENCODING 8805
SWIDTH 828 0
DWIDTH 23 0
BBX 17 17 3 0
BITMAP
C00000
F80000
FF8000
7FF000
07FE00
00FF80
001F80
00FF80
0FFC00
7FE000
FF0000
F80000
C00000
000000
FFFF80
FFFF80
FFFF80
ENDCHAR
STARTCHAR 22F2
ENCODING 8946
SWIDTH 828 0
DWIDTH 23 0
BBX 19 11 2 2
BITMAP
0F0020
7FE0E0
FFFFE0
FBFFE0
C03F80
800000
0F0020
7FF0E0
FFFFE0
F9FFC0
C01F80
ENDCHAR
STARTCHAR 255F
ENCODING 9567
SWIDTH 612 0
DWIDTH 17 0
BBX 15 20 1 0
BITMAP
03C0
1FF0
3FF8
3FFC
7FFC
7C7E
F83E
F83E
FBFE
FBFE
FBFE
FBFE
FBFE
F83E
F83E
F83E
F83E
F83E
F83E
F83E
ENDCHAR
STARTCHAR 2560
ENCODING 9568
SWIDTH 504 0
DWIDTH 14 0
BBX 12 19 1 0
BITMAP
03F0
0FF0
1FF0
3FF0
7F00
FC00
F800
FFF0
FFF0
FFF0
FFF0
F800
FC00
7E00
7FF0
3FF0
1FF0
0FF0
01F0
ENDCHAR
STARTCHAR 2561
ENCODING 9569
SWIDTH 252 0
DWIDTH 7 0
BBX 5 19 1 0
BITMAP
F8
F8
F8
F8
F8
F8
F8
F8
F8
F8
F8
F8
F8
F8
F8
F8
F8
F8
F8
ENDCHAR
STARTCHAR 2562
ENCODING 9570
SWIDTH 756 0
DWIDTH 21 0
BBX 20 20 1 0
BITMAP
01F000
07FE00
1FFF00
3FFF80
3FFFC0
7F0FE0
FC07E0
F803E0
F803F0
F801F0
F801F0
F801F0
F803E0
FC03E0
7E07E0
7FFFC0
3FFFC0
1FFF80
0FFF00
03FC00
ENDCHAR
STARTCHAR 2563
ENCODING 9571
SWIDTH 612 0
DWIDTH 17 0
BBX 15 19 1 0
BITMAP
F83E
F83E
F83E
F83E
F83E
F83E
F83E
F83E
F83E
F83E
F83E
F83E
F83E
7C3E
7EFE
7FFC
3FFC
1FF8
0FE0
ENDCHAR
STARTCHAR 2564
ENCODING 9572
SWIDTH 540 0
DWIDTH 15 0
BBX 14 19 1 0
BITMAP
F87C
F87C
F87C
F87C
F87C
F87C
F87C
F8F8
7FF8
7FF8
3FF0
1FE0
0F80
0F80
0F80
0F80
0F80
0F80
0F80
ENDCHAR
STARTCHAR 2565
ENCODING 9573
SWIDTH 540 0
DWIDTH 15 0
BBX 13 14 1 0
BITMAP
0F80
3FE0
7FF0
FFF8
FDF8
F078
F078
F078
F078
F878
FF78
7F78
3F78
1F78
ENDCHAR
STARTCHAR 2566
ENCODING 9574
SWIDTH 540 0
DWIDTH 15 0
BBX 14 14 1 0
BITMAP
0F80
3FE0
7FF0
7DF8
F9F8
F3E0
F7C0
F300
F238
F87C
FFF8
7FF8
3FF0
0FC0
ENDCHAR
STARTCHAR 2567
ENCODING 9575
SWIDTH 216 0
DWIDTH 6 0
BBX 5 20 1 0
BITMAP
70
F8
F8
F8
70
00
F8
F8
F8
F8
F8
F8
F8
F8
F8
F8
F8
F8
F8
F8
ENDCHAR
STARTCHAR 2568
ENCODING 9576
SWIDTH 216 0
DWIDTH 6 0
BBX 5 14 1 0
BITMAP
F8
F8
F8
F8
F8
F8
F8
F8
F8
F8
F8
F8
F8
F8
ENDCHAR
STARTCHAR 2569
ENCODING 9577
SWIDTH 540 0
DWIDTH 15 0
BBX 14 14 1 0
BITMAP
0F80
3FE0
7FF0
7FF8
FCF8
F878
F07C
F07C
F078
F8F8
FFF8
7FF0
3FE0
0FC0
ENDCHAR
STARTCHAR 256A
ENCODING 9578
SWIDTH 504 0
DWIDTH 14 0
BBX 13 14 1 0
BITMAP
F0F8
F0F8
F0F8
F0F8
F0F8
F0F8
F0F8
F0F8
F0F8
F8F0
7FF0
7FF0
3FE0
1FC0
ENDCHAR
STARTCHAR 256B
ENCODING 9579
SWIDTH 504 0
DWIDTH 14 0
BBX 13 20 1 -6
BITMAP
F0F8
F0F8
F0F8
F0F8
F0F8
F0F8
F0F8
F0F8
F0F8
F8F8
7FF0
7FF0
3FE0
1FC0
0F80
0F80
0F80
0F80
0F80
0F80
ENDCHAR
STARTCHAR 25CA
ENCODING 9674
SWIDTH 468 0
DWIDTH 13 0
BBX 13 28 0 -6
BITMAP
0200
0300
0700
0780
0480
0CC0
0840
1860
1060
3030
2030
6010
4018
C008
C008
4018
6010
2030
3030
1060
1860
0840
0CC0
0480
0780
0700
0300
0200
ENDCHAR
STARTCHAR 25CB
ENCODING 9675
SWIDTH 612 0
DWIDTH 17 0
BBX 7 10 5 21
BITMAP
3C
38
70
60
C0
38
7C
7C
E6
C6
ENDCHAR
STARTCHAR 25CF
ENCODING 9679
SWIDTH 612 0
DWIDTH 17 0
BBX 7 10 5 21
BITMAP
38
38
1C
0C
06
38
7C
7C
E6
C6
ENDCHAR
STARTCHAR 25D8
ENCODING 9688
SWIDTH 612 0
DWIDTH 17 0
BBX 10 10 5 21
BITMAP
0380
06C0
04C0
01C0
0180
3900
7C00
7C00
E600
C600
ENDCHAR
STARTCHAR 25D9
ENCODING 9689
SWIDTH 612 0
DWIDTH 17 0
BBX 9 9 5 21
BITMAP
3180
7F00
FF00
C000
3800
7C00
7C00
E600
C600
ENDCHAR
STARTCHAR F000
ENCODING 61440
SWIDTH 756 0
DWIDTH 21 0
BBX 18 22 2 0
BITMAP
000400
001C00
003C00
003800
007000
0C4E00
3FFF80
7FFFC0
FFFF80
FFFF00
FFFE00
FFFE00
FFFE00
FFFE00
FFFF00
FFFF80
FFFFC0
7FFFC0
7FFF80
3FFF80
1FFF00
0FFE00
ENDCHAR
STARTCHAR F001
ENCODING 61441
SWIDTH 540 0
DWIDTH 15 0
BBX 14 20 1 0
BITMAP
0038
3F7C
7F7C
7F7C
FF38
F800
FF78
FF78
FF78
FF78
F878
F878
F878
F878
F878
F878
F878
F878
F878
F878
ENDCHAR
STARTCHAR F002
ENCODING 61442
SWIDTH 540 0
DWIDTH 15 0
BBX 13 19 1 0
BITMAP
3F78
7F78
7F78
FF78
F878
FF78
FF78
FF78
FF78
F878
F878
F878
F878
F878
F878
F878
F878
F878
F878
ENDCHAR
ENDFONT
